<mxfile host="65bd71144e">
    <diagram id="g4kvSDeKG9Y5N2doKUYr" name="Page-1">
        <mxGraphModel dx="2335" dy="817" grid="0" gridSize="1" guides="1" tooltips="1" connect="1" arrows="1" fold="1" page="0" pageScale="1" pageWidth="827" pageHeight="1169" background="#ffffff" math="0" shadow="0">
            <root>
                <mxCell id="0"/>
                <mxCell id="1" parent="0"/>
                <mxCell id="2" value="fight" style="shape=table;startSize=30;container=1;collapsible=1;childLayout=tableLayout;fixedRows=1;rowLines=0;fontStyle=1;align=center;resizeLast=1;fontColor=#000000;labelBorderColor=none;swimlaneFillColor=none;fillColor=none;strokeColor=#000000;strokeWidth=1;swimlaneLine=1;shadow=0;rounded=1;" vertex="1" parent="1">
                    <mxGeometry x="5" y="4" width="252.5720214843749" height="357.5378947368421" as="geometry"/>
                </mxCell>
                <mxCell id="3" value="" style="shape=tableRow;horizontal=0;startSize=0;swimlaneHead=0;swimlaneBody=0;fillColor=none;collapsible=0;dropTarget=0;points=[[0,0.5],[1,0.5]];portConstraint=eastwest;top=0;left=0;right=0;bottom=1;fontColor=#000000;labelBorderColor=none;swimlaneFillColor=none;swimlaneLine=1;shadow=0;strokeColor=#000000;" vertex="1" parent="2">
                    <mxGeometry y="30" width="252.5720214843749" height="29" as="geometry"/>
                </mxCell>
                <mxCell id="4" value="PK" style="shape=partialRectangle;connectable=0;fillColor=none;top=0;left=0;bottom=0;right=0;fontStyle=1;overflow=hidden;fontColor=#000000;labelBorderColor=none;swimlaneFillColor=none;swimlaneLine=1;shadow=0;" vertex="1" parent="3">
                    <mxGeometry width="30" height="29" as="geometry">
                        <mxRectangle width="30" height="29" as="alternateBounds"/>
                    </mxGeometry>
                </mxCell>
                <mxCell id="5" value="id INT NOT_NULL" style="shape=partialRectangle;connectable=0;fillColor=none;top=0;left=0;bottom=0;right=0;align=left;spacingLeft=6;fontStyle=5;overflow=hidden;fontColor=#000000;labelBorderColor=none;swimlaneFillColor=none;swimlaneLine=1;shadow=0;" vertex="1" parent="3">
                    <mxGeometry x="30" width="222.5720214843749" height="29" as="geometry">
                        <mxRectangle width="222.5720214843749" height="29" as="alternateBounds"/>
                    </mxGeometry>
                </mxCell>
                <mxCell id="6" value="" style="shape=tableRow;horizontal=0;startSize=0;swimlaneHead=0;swimlaneBody=0;fillColor=none;collapsible=0;dropTarget=0;points=[[0,0.5],[1,0.5]];portConstraint=eastwest;top=0;left=0;right=0;bottom=0;fontColor=#000000;labelBorderColor=none;swimlaneFillColor=none;swimlaneLine=1;shadow=0;" vertex="1" parent="2">
                    <mxGeometry y="59" width="252.5720214843749" height="30" as="geometry"/>
                </mxCell>
                <mxCell id="7" value="" style="shape=partialRectangle;connectable=0;fillColor=none;top=0;left=0;bottom=0;right=0;editable=1;overflow=hidden;fontColor=#000000;labelBorderColor=none;swimlaneFillColor=none;swimlaneLine=1;shadow=0;" vertex="1" parent="6">
                    <mxGeometry width="30" height="30" as="geometry">
                        <mxRectangle width="30" height="30" as="alternateBounds"/>
                    </mxGeometry>
                </mxCell>
                <mxCell id="8" value="fight_no CHAR NOT_NULL" style="shape=partialRectangle;connectable=0;fillColor=none;top=0;left=0;bottom=0;right=0;align=left;spacingLeft=6;overflow=hidden;fontColor=#000000;labelBorderColor=none;swimlaneFillColor=none;swimlaneLine=1;shadow=0;" vertex="1" parent="6">
                    <mxGeometry x="30" width="222.5720214843749" height="30" as="geometry">
                        <mxRectangle width="222.5720214843749" height="30" as="alternateBounds"/>
                    </mxGeometry>
                </mxCell>
                <mxCell id="9" value="" style="shape=tableRow;horizontal=0;startSize=0;swimlaneHead=0;swimlaneBody=0;fillColor=none;collapsible=0;dropTarget=0;points=[[0,0.5],[1,0.5]];portConstraint=eastwest;top=0;left=0;right=0;bottom=0;fontColor=#000000;labelBorderColor=none;swimlaneFillColor=none;swimlaneLine=1;shadow=0;" vertex="1" parent="2">
                    <mxGeometry y="89" width="252.5720214843749" height="30" as="geometry"/>
                </mxCell>
                <mxCell id="10" value="FK" style="shape=partialRectangle;connectable=0;fillColor=none;top=0;left=0;bottom=0;right=0;editable=1;overflow=hidden;fontColor=#000000;labelBorderColor=none;swimlaneFillColor=none;swimlaneLine=1;shadow=0;" vertex="1" parent="9">
                    <mxGeometry width="30" height="30" as="geometry">
                        <mxRectangle width="30" height="30" as="alternateBounds"/>
                    </mxGeometry>
                </mxCell>
                <mxCell id="11" value="departure_station INT NOT_NULL" style="shape=partialRectangle;connectable=0;fillColor=none;top=0;left=0;bottom=0;right=0;align=left;spacingLeft=6;overflow=hidden;fontColor=#000000;labelBorderColor=none;swimlaneFillColor=none;swimlaneLine=1;shadow=0;" vertex="1" parent="9">
                    <mxGeometry x="30" width="222.5720214843749" height="30" as="geometry">
                        <mxRectangle width="222.5720214843749" height="30" as="alternateBounds"/>
                    </mxGeometry>
                </mxCell>
                <mxCell id="12" value="" style="shape=tableRow;horizontal=0;startSize=0;swimlaneHead=0;swimlaneBody=0;fillColor=none;collapsible=0;dropTarget=0;points=[[0,0.5],[1,0.5]];portConstraint=eastwest;top=0;left=0;right=0;bottom=0;fontColor=#000000;labelBorderColor=none;swimlaneFillColor=none;swimlaneLine=1;shadow=0;" vertex="1" parent="2">
                    <mxGeometry y="119" width="252.5720214843749" height="30" as="geometry"/>
                </mxCell>
                <mxCell id="13" value="" style="shape=partialRectangle;connectable=0;fillColor=none;top=0;left=0;bottom=0;right=0;editable=1;overflow=hidden;fontColor=#000000;labelBorderColor=none;swimlaneFillColor=none;swimlaneLine=1;shadow=0;" vertex="1" parent="12">
                    <mxGeometry width="30" height="30" as="geometry">
                        <mxRectangle width="30" height="30" as="alternateBounds"/>
                    </mxGeometry>
                </mxCell>
                <mxCell id="14" value="departure_date DATETIME NOT_NULL" style="shape=partialRectangle;connectable=0;fillColor=none;top=0;left=0;bottom=0;right=0;align=left;spacingLeft=6;overflow=hidden;fontColor=#000000;labelBorderColor=none;swimlaneFillColor=none;swimlaneLine=1;shadow=0;" vertex="1" parent="12">
                    <mxGeometry x="30" width="222.5720214843749" height="30" as="geometry">
                        <mxRectangle width="222.5720214843749" height="30" as="alternateBounds"/>
                    </mxGeometry>
                </mxCell>
                <mxCell id="28" value="" style="shape=tableRow;horizontal=0;startSize=0;swimlaneHead=0;swimlaneBody=0;fillColor=none;collapsible=0;dropTarget=0;points=[[0,0.5],[1,0.5]];portConstraint=eastwest;top=0;left=0;right=0;bottom=0;fontColor=#000000;labelBorderColor=none;swimlaneFillColor=none;swimlaneLine=1;shadow=0;" vertex="1" parent="2">
                    <mxGeometry y="149" width="252.5720214843749" height="30" as="geometry"/>
                </mxCell>
                <mxCell id="29" value="FK" style="shape=partialRectangle;connectable=0;fillColor=none;top=0;left=0;bottom=0;right=0;editable=1;overflow=hidden;fontColor=#000000;labelBorderColor=none;swimlaneFillColor=none;swimlaneLine=1;shadow=0;" vertex="1" parent="28">
                    <mxGeometry width="30" height="30" as="geometry">
                        <mxRectangle width="30" height="30" as="alternateBounds"/>
                    </mxGeometry>
                </mxCell>
                <mxCell id="30" value="arrival_station INT NOT_NULL" style="shape=partialRectangle;connectable=0;fillColor=none;top=0;left=0;bottom=0;right=0;align=left;spacingLeft=6;overflow=hidden;fontColor=#000000;labelBorderColor=none;swimlaneFillColor=none;swimlaneLine=1;shadow=0;" vertex="1" parent="28">
                    <mxGeometry x="30" width="222.5720214843749" height="30" as="geometry">
                        <mxRectangle width="222.5720214843749" height="30" as="alternateBounds"/>
                    </mxGeometry>
                </mxCell>
                <mxCell id="34" value="" style="shape=tableRow;horizontal=0;startSize=0;swimlaneHead=0;swimlaneBody=0;fillColor=none;collapsible=0;dropTarget=0;points=[[0,0.5],[1,0.5]];portConstraint=eastwest;top=0;left=0;right=0;bottom=0;fontColor=#000000;labelBorderColor=none;swimlaneFillColor=none;swimlaneLine=1;shadow=0;" vertex="1" parent="2">
                    <mxGeometry y="179" width="252.5720214843749" height="28" as="geometry"/>
                </mxCell>
                <mxCell id="35" value="" style="shape=partialRectangle;connectable=0;fillColor=none;top=0;left=0;bottom=0;right=0;editable=1;overflow=hidden;fontColor=#000000;labelBorderColor=none;swimlaneFillColor=none;swimlaneLine=1;shadow=0;" vertex="1" parent="34">
                    <mxGeometry width="30" height="28" as="geometry">
                        <mxRectangle width="30" height="28" as="alternateBounds"/>
                    </mxGeometry>
                </mxCell>
                <mxCell id="36" value="arrival_date DATETIME NOT_NULL" style="shape=partialRectangle;connectable=0;fillColor=none;top=0;left=0;bottom=0;right=0;align=left;spacingLeft=6;overflow=hidden;fontColor=#000000;labelBorderColor=none;swimlaneFillColor=none;swimlaneLine=1;shadow=0;" vertex="1" parent="34">
                    <mxGeometry x="30" width="222.5720214843749" height="28" as="geometry">
                        <mxRectangle width="222.5720214843749" height="28" as="alternateBounds"/>
                    </mxGeometry>
                </mxCell>
                <mxCell id="37" value="" style="shape=tableRow;horizontal=0;startSize=0;swimlaneHead=0;swimlaneBody=0;fillColor=none;collapsible=0;dropTarget=0;points=[[0,0.5],[1,0.5]];portConstraint=eastwest;top=0;left=0;right=0;bottom=0;fontColor=#000000;labelBorderColor=none;swimlaneFillColor=none;swimlaneLine=1;shadow=0;" vertex="1" parent="2">
                    <mxGeometry y="207" width="252.5720214843749" height="30" as="geometry"/>
                </mxCell>
                <mxCell id="38" value="FK" style="shape=partialRectangle;connectable=0;fillColor=none;top=0;left=0;bottom=0;right=0;editable=1;overflow=hidden;fontColor=#000000;labelBorderColor=none;swimlaneFillColor=none;swimlaneLine=1;shadow=0;" vertex="1" parent="37">
                    <mxGeometry width="30" height="30" as="geometry">
                        <mxRectangle width="30" height="30" as="alternateBounds"/>
                    </mxGeometry>
                </mxCell>
                <mxCell id="39" value="created_by INT NOT_NULL" style="shape=partialRectangle;connectable=0;fillColor=none;top=0;left=0;bottom=0;right=0;align=left;spacingLeft=6;overflow=hidden;fontColor=#000000;labelBorderColor=none;swimlaneFillColor=none;swimlaneLine=1;shadow=0;" vertex="1" parent="37">
                    <mxGeometry x="30" width="222.5720214843749" height="30" as="geometry">
                        <mxRectangle width="222.5720214843749" height="30" as="alternateBounds"/>
                    </mxGeometry>
                </mxCell>
                <mxCell id="40" value="" style="shape=tableRow;horizontal=0;startSize=0;swimlaneHead=0;swimlaneBody=0;fillColor=none;collapsible=0;dropTarget=0;points=[[0,0.5],[1,0.5]];portConstraint=eastwest;top=0;left=0;right=0;bottom=0;fontColor=#000000;labelBorderColor=none;swimlaneFillColor=none;swimlaneLine=1;shadow=0;" vertex="1" parent="2">
                    <mxGeometry y="237" width="252.5720214843749" height="30" as="geometry"/>
                </mxCell>
                <mxCell id="41" value="" style="shape=partialRectangle;connectable=0;fillColor=none;top=0;left=0;bottom=0;right=0;editable=1;overflow=hidden;fontColor=#000000;labelBorderColor=none;swimlaneFillColor=none;swimlaneLine=1;shadow=0;" vertex="1" parent="40">
                    <mxGeometry width="30" height="30" as="geometry">
                        <mxRectangle width="30" height="30" as="alternateBounds"/>
                    </mxGeometry>
                </mxCell>
                <mxCell id="42" value="created_at DATETIME NOT_NULL" style="shape=partialRectangle;connectable=0;fillColor=none;top=0;left=0;bottom=0;right=0;align=left;spacingLeft=6;overflow=hidden;fontColor=#000000;labelBorderColor=none;swimlaneFillColor=none;swimlaneLine=1;shadow=0;" vertex="1" parent="40">
                    <mxGeometry x="30" width="222.5720214843749" height="30" as="geometry">
                        <mxRectangle width="222.5720214843749" height="30" as="alternateBounds"/>
                    </mxGeometry>
                </mxCell>
                <mxCell id="43" value="" style="shape=tableRow;horizontal=0;startSize=0;swimlaneHead=0;swimlaneBody=0;fillColor=none;collapsible=0;dropTarget=0;points=[[0,0.5],[1,0.5]];portConstraint=eastwest;top=0;left=0;right=0;bottom=0;fontColor=#000000;labelBorderColor=none;swimlaneFillColor=none;swimlaneLine=1;shadow=0;" vertex="1" parent="2">
                    <mxGeometry y="267" width="252.5720214843749" height="30" as="geometry"/>
                </mxCell>
                <mxCell id="44" value="FK" style="shape=partialRectangle;connectable=0;fillColor=none;top=0;left=0;bottom=0;right=0;editable=1;overflow=hidden;fontColor=#000000;labelBorderColor=none;swimlaneFillColor=none;swimlaneLine=1;shadow=0;" vertex="1" parent="43">
                    <mxGeometry width="30" height="30" as="geometry">
                        <mxRectangle width="30" height="30" as="alternateBounds"/>
                    </mxGeometry>
                </mxCell>
                <mxCell id="45" value="updated_by INT" style="shape=partialRectangle;connectable=0;fillColor=none;top=0;left=0;bottom=0;right=0;align=left;spacingLeft=6;overflow=hidden;fontColor=#000000;labelBorderColor=none;swimlaneFillColor=none;swimlaneLine=1;shadow=0;" vertex="1" parent="43">
                    <mxGeometry x="30" width="222.5720214843749" height="30" as="geometry">
                        <mxRectangle width="222.5720214843749" height="30" as="alternateBounds"/>
                    </mxGeometry>
                </mxCell>
                <mxCell id="46" value="" style="shape=tableRow;horizontal=0;startSize=0;swimlaneHead=0;swimlaneBody=0;fillColor=none;collapsible=0;dropTarget=0;points=[[0,0.5],[1,0.5]];portConstraint=eastwest;top=0;left=0;right=0;bottom=0;fontColor=#000000;labelBorderColor=none;swimlaneFillColor=none;swimlaneLine=1;shadow=0;" vertex="1" parent="2">
                    <mxGeometry y="297" width="252.5720214843749" height="30" as="geometry"/>
                </mxCell>
                <mxCell id="47" value="" style="shape=partialRectangle;connectable=0;fillColor=none;top=0;left=0;bottom=0;right=0;editable=1;overflow=hidden;fontColor=#000000;labelBorderColor=none;swimlaneFillColor=none;swimlaneLine=1;shadow=0;" vertex="1" parent="46">
                    <mxGeometry width="30" height="30" as="geometry">
                        <mxRectangle width="30" height="30" as="alternateBounds"/>
                    </mxGeometry>
                </mxCell>
                <mxCell id="48" value="updated_at DATETIME" style="shape=partialRectangle;connectable=0;fillColor=none;top=0;left=0;bottom=0;right=0;align=left;spacingLeft=6;overflow=hidden;fontColor=#000000;labelBorderColor=none;swimlaneFillColor=none;swimlaneLine=1;shadow=0;" vertex="1" parent="46">
                    <mxGeometry x="30" width="222.5720214843749" height="30" as="geometry">
                        <mxRectangle width="222.5720214843749" height="30" as="alternateBounds"/>
                    </mxGeometry>
                </mxCell>
                <mxCell id="49" value="" style="shape=tableRow;horizontal=0;startSize=0;swimlaneHead=0;swimlaneBody=0;fillColor=none;collapsible=0;dropTarget=0;points=[[0,0.5],[1,0.5]];portConstraint=eastwest;top=0;left=0;right=0;bottom=0;fontColor=#000000;labelBorderColor=none;swimlaneFillColor=none;swimlaneLine=1;shadow=0;" vertex="1" parent="2">
                    <mxGeometry y="327" width="252.5720214843749" height="30" as="geometry"/>
                </mxCell>
                <mxCell id="50" value="" style="shape=partialRectangle;connectable=0;fillColor=none;top=0;left=0;bottom=0;right=0;editable=1;overflow=hidden;fontColor=#000000;labelBorderColor=none;swimlaneFillColor=none;swimlaneLine=1;shadow=0;" vertex="1" parent="49">
                    <mxGeometry width="30" height="30" as="geometry">
                        <mxRectangle width="30" height="30" as="alternateBounds"/>
                    </mxGeometry>
                </mxCell>
                <mxCell id="51" value="del_flag BOOL NOT_NULL" style="shape=partialRectangle;connectable=0;fillColor=none;top=0;left=0;bottom=0;right=0;align=left;spacingLeft=6;overflow=hidden;fontColor=#000000;labelBorderColor=none;swimlaneFillColor=none;swimlaneLine=1;shadow=0;" vertex="1" parent="49">
                    <mxGeometry x="30" width="222.5720214843749" height="30" as="geometry">
                        <mxRectangle width="222.5720214843749" height="30" as="alternateBounds"/>
                    </mxGeometry>
                </mxCell>
                <mxCell id="52" value="document" style="shape=table;startSize=30;container=1;collapsible=1;childLayout=tableLayout;fixedRows=1;rowLines=0;fontStyle=1;align=center;resizeLast=1;fontColor=#000000;labelBorderColor=none;swimlaneFillColor=none;fillColor=none;strokeColor=#000000;strokeWidth=1;swimlaneLine=1;shadow=0;rounded=1;" vertex="1" parent="1">
                    <mxGeometry x="305" y="4" width="311" height="359.38" as="geometry"/>
                </mxCell>
                <mxCell id="53" value="" style="shape=tableRow;horizontal=0;startSize=0;swimlaneHead=0;swimlaneBody=0;fillColor=none;collapsible=0;dropTarget=0;points=[[0,0.5],[1,0.5]];portConstraint=eastwest;top=0;left=0;right=0;bottom=1;fontColor=#000000;labelBorderColor=none;swimlaneFillColor=none;swimlaneLine=1;shadow=0;strokeColor=#000000;" vertex="1" parent="52">
                    <mxGeometry y="30" width="311" height="29" as="geometry"/>
                </mxCell>
                <mxCell id="54" value="PK" style="shape=partialRectangle;connectable=0;fillColor=none;top=0;left=0;bottom=0;right=0;fontStyle=1;overflow=hidden;fontColor=#000000;labelBorderColor=none;swimlaneFillColor=none;swimlaneLine=1;shadow=0;" vertex="1" parent="53">
                    <mxGeometry width="30" height="29" as="geometry">
                        <mxRectangle width="30" height="29" as="alternateBounds"/>
                    </mxGeometry>
                </mxCell>
                <mxCell id="55" value="id INT NOT_NULL" style="shape=partialRectangle;connectable=0;fillColor=none;top=0;left=0;bottom=0;right=0;align=left;spacingLeft=6;fontStyle=5;overflow=hidden;fontColor=#000000;labelBorderColor=none;swimlaneFillColor=none;swimlaneLine=1;shadow=0;" vertex="1" parent="53">
                    <mxGeometry x="30" width="281" height="29" as="geometry">
                        <mxRectangle width="281" height="29" as="alternateBounds"/>
                    </mxGeometry>
                </mxCell>
                <mxCell id="56" value="" style="shape=tableRow;horizontal=0;startSize=0;swimlaneHead=0;swimlaneBody=0;fillColor=none;collapsible=0;dropTarget=0;points=[[0,0.5],[1,0.5]];portConstraint=eastwest;top=0;left=0;right=0;bottom=0;fontColor=#000000;labelBorderColor=none;swimlaneFillColor=none;swimlaneLine=1;shadow=0;" vertex="1" parent="52">
                    <mxGeometry y="59" width="311" height="30" as="geometry"/>
                </mxCell>
                <mxCell id="57" value="" style="shape=partialRectangle;connectable=0;fillColor=none;top=0;left=0;bottom=0;right=0;editable=1;overflow=hidden;fontColor=#000000;labelBorderColor=none;swimlaneFillColor=none;swimlaneLine=1;shadow=0;" vertex="1" parent="56">
                    <mxGeometry width="30" height="30" as="geometry">
                        <mxRectangle width="30" height="30" as="alternateBounds"/>
                    </mxGeometry>
                </mxCell>
                <mxCell id="58" value="document_name VARCHAR(255) NOT_NULL" style="shape=partialRectangle;connectable=0;fillColor=none;top=0;left=0;bottom=0;right=0;align=left;spacingLeft=6;overflow=hidden;fontColor=#000000;labelBorderColor=none;swimlaneFillColor=none;swimlaneLine=1;shadow=0;" vertex="1" parent="56">
                    <mxGeometry x="30" width="281" height="30" as="geometry">
                        <mxRectangle width="281" height="30" as="alternateBounds"/>
                    </mxGeometry>
                </mxCell>
                <mxCell id="59" value="" style="shape=tableRow;horizontal=0;startSize=0;swimlaneHead=0;swimlaneBody=0;fillColor=none;collapsible=0;dropTarget=0;points=[[0,0.5],[1,0.5]];portConstraint=eastwest;top=0;left=0;right=0;bottom=0;fontColor=#000000;labelBorderColor=none;swimlaneFillColor=none;swimlaneLine=1;shadow=0;" vertex="1" parent="52">
                    <mxGeometry y="89" width="311" height="30" as="geometry"/>
                </mxCell>
                <mxCell id="60" value="FK" style="shape=partialRectangle;connectable=0;fillColor=none;top=0;left=0;bottom=0;right=0;editable=1;overflow=hidden;fontColor=#000000;labelBorderColor=none;swimlaneFillColor=none;swimlaneLine=1;shadow=0;" vertex="1" parent="59">
                    <mxGeometry width="30" height="30" as="geometry">
                        <mxRectangle width="30" height="30" as="alternateBounds"/>
                    </mxGeometry>
                </mxCell>
                <mxCell id="61" value="document_type_id INT NOT_NULL" style="shape=partialRectangle;connectable=0;fillColor=none;top=0;left=0;bottom=0;right=0;align=left;spacingLeft=6;overflow=hidden;fontColor=#000000;labelBorderColor=none;swimlaneFillColor=none;swimlaneLine=1;shadow=0;" vertex="1" parent="59">
                    <mxGeometry x="30" width="281" height="30" as="geometry">
                        <mxRectangle width="281" height="30" as="alternateBounds"/>
                    </mxGeometry>
                </mxCell>
                <mxCell id="62" value="" style="shape=tableRow;horizontal=0;startSize=0;swimlaneHead=0;swimlaneBody=0;fillColor=none;collapsible=0;dropTarget=0;points=[[0,0.5],[1,0.5]];portConstraint=eastwest;top=0;left=0;right=0;bottom=0;fontColor=#000000;labelBorderColor=none;swimlaneFillColor=none;swimlaneLine=1;shadow=0;" vertex="1" parent="52">
                    <mxGeometry y="119" width="311" height="30" as="geometry"/>
                </mxCell>
                <mxCell id="63" value="FK" style="shape=partialRectangle;connectable=0;fillColor=none;top=0;left=0;bottom=0;right=0;editable=1;overflow=hidden;fontColor=#000000;labelBorderColor=none;swimlaneFillColor=none;swimlaneLine=1;shadow=0;" vertex="1" parent="62">
                    <mxGeometry width="30" height="30" as="geometry">
                        <mxRectangle width="30" height="30" as="alternateBounds"/>
                    </mxGeometry>
                </mxCell>
                <mxCell id="64" value="fight_id INT NOT_NULL" style="shape=partialRectangle;connectable=0;fillColor=none;top=0;left=0;bottom=0;right=0;align=left;spacingLeft=6;overflow=hidden;fontColor=#000000;labelBorderColor=none;swimlaneFillColor=none;swimlaneLine=1;shadow=0;" vertex="1" parent="62">
                    <mxGeometry x="30" width="281" height="30" as="geometry">
                        <mxRectangle width="281" height="30" as="alternateBounds"/>
                    </mxGeometry>
                </mxCell>
                <mxCell id="223" value="" style="shape=tableRow;horizontal=0;startSize=0;swimlaneHead=0;swimlaneBody=0;fillColor=none;collapsible=0;dropTarget=0;points=[[0,0.5],[1,0.5]];portConstraint=eastwest;top=0;left=0;right=0;bottom=0;fontColor=#000000;labelBorderColor=none;swimlaneFillColor=none;swimlaneLine=1;shadow=0;" vertex="1" parent="52">
                    <mxGeometry y="149" width="311" height="30" as="geometry"/>
                </mxCell>
                <mxCell id="224" value="" style="shape=partialRectangle;connectable=0;fillColor=none;top=0;left=0;bottom=0;right=0;editable=1;overflow=hidden;fontColor=#000000;labelBorderColor=none;swimlaneFillColor=none;swimlaneLine=1;shadow=0;" vertex="1" parent="223">
                    <mxGeometry width="30" height="30" as="geometry">
                        <mxRectangle width="30" height="30" as="alternateBounds"/>
                    </mxGeometry>
                </mxCell>
                <mxCell id="225" value="patch VARCHAR(MAX) NOT_NULL" style="shape=partialRectangle;connectable=0;fillColor=none;top=0;left=0;bottom=0;right=0;align=left;spacingLeft=6;overflow=hidden;fontColor=#000000;labelBorderColor=none;swimlaneFillColor=none;swimlaneLine=1;shadow=0;" vertex="1" parent="223">
                    <mxGeometry x="30" width="281" height="30" as="geometry">
                        <mxRectangle width="281" height="30" as="alternateBounds"/>
                    </mxGeometry>
                </mxCell>
                <mxCell id="65" value="" style="shape=tableRow;horizontal=0;startSize=0;swimlaneHead=0;swimlaneBody=0;fillColor=none;collapsible=0;dropTarget=0;points=[[0,0.5],[1,0.5]];portConstraint=eastwest;top=0;left=0;right=0;bottom=0;fontColor=#000000;labelBorderColor=none;swimlaneFillColor=none;swimlaneLine=1;shadow=0;" vertex="1" parent="52">
                    <mxGeometry y="179" width="311" height="30" as="geometry"/>
                </mxCell>
                <mxCell id="66" value="FK" style="shape=partialRectangle;connectable=0;fillColor=none;top=0;left=0;bottom=0;right=0;editable=1;overflow=hidden;fontColor=#000000;labelBorderColor=none;swimlaneFillColor=none;swimlaneLine=1;shadow=0;" vertex="1" parent="65">
                    <mxGeometry width="30" height="30" as="geometry">
                        <mxRectangle width="30" height="30" as="alternateBounds"/>
                    </mxGeometry>
                </mxCell>
                <mxCell id="67" value="version CHAR NOT_NULL" style="shape=partialRectangle;connectable=0;fillColor=none;top=0;left=0;bottom=0;right=0;align=left;spacingLeft=6;overflow=hidden;fontColor=#000000;labelBorderColor=none;swimlaneFillColor=none;swimlaneLine=1;shadow=0;" vertex="1" parent="65">
                    <mxGeometry x="30" width="281" height="30" as="geometry">
                        <mxRectangle width="281" height="30" as="alternateBounds"/>
                    </mxGeometry>
                </mxCell>
                <mxCell id="71" value="" style="shape=tableRow;horizontal=0;startSize=0;swimlaneHead=0;swimlaneBody=0;fillColor=none;collapsible=0;dropTarget=0;points=[[0,0.5],[1,0.5]];portConstraint=eastwest;top=0;left=0;right=0;bottom=0;fontColor=#000000;labelBorderColor=none;swimlaneFillColor=none;swimlaneLine=1;shadow=0;" vertex="1" parent="52">
                    <mxGeometry y="209" width="311" height="30" as="geometry"/>
                </mxCell>
                <mxCell id="72" value="FK" style="shape=partialRectangle;connectable=0;fillColor=none;top=0;left=0;bottom=0;right=0;editable=1;overflow=hidden;fontColor=#000000;labelBorderColor=none;swimlaneFillColor=none;swimlaneLine=1;shadow=0;" vertex="1" parent="71">
                    <mxGeometry width="30" height="30" as="geometry">
                        <mxRectangle width="30" height="30" as="alternateBounds"/>
                    </mxGeometry>
                </mxCell>
                <mxCell id="73" value="created_by INT NOT_NULL" style="shape=partialRectangle;connectable=0;fillColor=none;top=0;left=0;bottom=0;right=0;align=left;spacingLeft=6;overflow=hidden;fontColor=#000000;labelBorderColor=none;swimlaneFillColor=none;swimlaneLine=1;shadow=0;" vertex="1" parent="71">
                    <mxGeometry x="30" width="281" height="30" as="geometry">
                        <mxRectangle width="281" height="30" as="alternateBounds"/>
                    </mxGeometry>
                </mxCell>
                <mxCell id="74" value="" style="shape=tableRow;horizontal=0;startSize=0;swimlaneHead=0;swimlaneBody=0;fillColor=none;collapsible=0;dropTarget=0;points=[[0,0.5],[1,0.5]];portConstraint=eastwest;top=0;left=0;right=0;bottom=0;fontColor=#000000;labelBorderColor=none;swimlaneFillColor=none;swimlaneLine=1;shadow=0;" vertex="1" parent="52">
                    <mxGeometry y="239" width="311" height="30" as="geometry"/>
                </mxCell>
                <mxCell id="75" value="" style="shape=partialRectangle;connectable=0;fillColor=none;top=0;left=0;bottom=0;right=0;editable=1;overflow=hidden;fontColor=#000000;labelBorderColor=none;swimlaneFillColor=none;swimlaneLine=1;shadow=0;" vertex="1" parent="74">
                    <mxGeometry width="30" height="30" as="geometry">
                        <mxRectangle width="30" height="30" as="alternateBounds"/>
                    </mxGeometry>
                </mxCell>
                <mxCell id="76" value="created_at DATETIME NOT_NULL" style="shape=partialRectangle;connectable=0;fillColor=none;top=0;left=0;bottom=0;right=0;align=left;spacingLeft=6;overflow=hidden;fontColor=#000000;labelBorderColor=none;swimlaneFillColor=none;swimlaneLine=1;shadow=0;" vertex="1" parent="74">
                    <mxGeometry x="30" width="281" height="30" as="geometry">
                        <mxRectangle width="281" height="30" as="alternateBounds"/>
                    </mxGeometry>
                </mxCell>
                <mxCell id="77" value="" style="shape=tableRow;horizontal=0;startSize=0;swimlaneHead=0;swimlaneBody=0;fillColor=none;collapsible=0;dropTarget=0;points=[[0,0.5],[1,0.5]];portConstraint=eastwest;top=0;left=0;right=0;bottom=0;fontColor=#000000;labelBorderColor=none;swimlaneFillColor=none;swimlaneLine=1;shadow=0;" vertex="1" parent="52">
                    <mxGeometry y="269" width="311" height="30" as="geometry"/>
                </mxCell>
                <mxCell id="78" value="FK" style="shape=partialRectangle;connectable=0;fillColor=none;top=0;left=0;bottom=0;right=0;editable=1;overflow=hidden;fontColor=#000000;labelBorderColor=none;swimlaneFillColor=none;swimlaneLine=1;shadow=0;" vertex="1" parent="77">
                    <mxGeometry width="30" height="30" as="geometry">
                        <mxRectangle width="30" height="30" as="alternateBounds"/>
                    </mxGeometry>
                </mxCell>
                <mxCell id="79" value="updated_by INT" style="shape=partialRectangle;connectable=0;fillColor=none;top=0;left=0;bottom=0;right=0;align=left;spacingLeft=6;overflow=hidden;fontColor=#000000;labelBorderColor=none;swimlaneFillColor=none;swimlaneLine=1;shadow=0;" vertex="1" parent="77">
                    <mxGeometry x="30" width="281" height="30" as="geometry">
                        <mxRectangle width="281" height="30" as="alternateBounds"/>
                    </mxGeometry>
                </mxCell>
                <mxCell id="80" value="" style="shape=tableRow;horizontal=0;startSize=0;swimlaneHead=0;swimlaneBody=0;fillColor=none;collapsible=0;dropTarget=0;points=[[0,0.5],[1,0.5]];portConstraint=eastwest;top=0;left=0;right=0;bottom=0;fontColor=#000000;labelBorderColor=none;swimlaneFillColor=none;swimlaneLine=1;shadow=0;" vertex="1" parent="52">
                    <mxGeometry y="299" width="311" height="30" as="geometry"/>
                </mxCell>
                <mxCell id="81" value="" style="shape=partialRectangle;connectable=0;fillColor=none;top=0;left=0;bottom=0;right=0;editable=1;overflow=hidden;fontColor=#000000;labelBorderColor=none;swimlaneFillColor=none;swimlaneLine=1;shadow=0;" vertex="1" parent="80">
                    <mxGeometry width="30" height="30" as="geometry">
                        <mxRectangle width="30" height="30" as="alternateBounds"/>
                    </mxGeometry>
                </mxCell>
                <mxCell id="82" value="updated_at DATETIME" style="shape=partialRectangle;connectable=0;fillColor=none;top=0;left=0;bottom=0;right=0;align=left;spacingLeft=6;overflow=hidden;fontColor=#000000;labelBorderColor=none;swimlaneFillColor=none;swimlaneLine=1;shadow=0;" vertex="1" parent="80">
                    <mxGeometry x="30" width="281" height="30" as="geometry">
                        <mxRectangle width="281" height="30" as="alternateBounds"/>
                    </mxGeometry>
                </mxCell>
                <mxCell id="83" value="" style="shape=tableRow;horizontal=0;startSize=0;swimlaneHead=0;swimlaneBody=0;fillColor=none;collapsible=0;dropTarget=0;points=[[0,0.5],[1,0.5]];portConstraint=eastwest;top=0;left=0;right=0;bottom=0;fontColor=#000000;labelBorderColor=none;swimlaneFillColor=none;swimlaneLine=1;shadow=0;" vertex="1" parent="52">
                    <mxGeometry y="329" width="311" height="30" as="geometry"/>
                </mxCell>
                <mxCell id="84" value="" style="shape=partialRectangle;connectable=0;fillColor=none;top=0;left=0;bottom=0;right=0;editable=1;overflow=hidden;fontColor=#000000;labelBorderColor=none;swimlaneFillColor=none;swimlaneLine=1;shadow=0;" vertex="1" parent="83">
                    <mxGeometry width="30" height="30" as="geometry">
                        <mxRectangle width="30" height="30" as="alternateBounds"/>
                    </mxGeometry>
                </mxCell>
                <mxCell id="85" value="del_flag BOOL NOT_NULL" style="shape=partialRectangle;connectable=0;fillColor=none;top=0;left=0;bottom=0;right=0;align=left;spacingLeft=6;overflow=hidden;fontColor=#000000;labelBorderColor=none;swimlaneFillColor=none;swimlaneLine=1;shadow=0;" vertex="1" parent="83">
                    <mxGeometry x="30" width="281" height="30" as="geometry">
                        <mxRectangle width="281" height="30" as="alternateBounds"/>
                    </mxGeometry>
                </mxCell>
                <mxCell id="86" value="type_document" style="shape=table;startSize=30;container=1;collapsible=1;childLayout=tableLayout;fixedRows=1;rowLines=0;fontStyle=1;align=center;resizeLast=1;fontColor=#000000;labelBorderColor=none;swimlaneFillColor=none;fillColor=none;strokeColor=#000000;strokeWidth=1;swimlaneLine=1;shadow=0;rounded=1;" vertex="1" parent="1">
                    <mxGeometry x="699" y="10" width="311" height="299.38" as="geometry"/>
                </mxCell>
                <mxCell id="87" value="" style="shape=tableRow;horizontal=0;startSize=0;swimlaneHead=0;swimlaneBody=0;fillColor=none;collapsible=0;dropTarget=0;points=[[0,0.5],[1,0.5]];portConstraint=eastwest;top=0;left=0;right=0;bottom=1;fontColor=#000000;labelBorderColor=none;swimlaneFillColor=none;swimlaneLine=1;shadow=0;strokeColor=#000000;" vertex="1" parent="86">
                    <mxGeometry y="30" width="311" height="29" as="geometry"/>
                </mxCell>
                <mxCell id="88" value="PK" style="shape=partialRectangle;connectable=0;fillColor=none;top=0;left=0;bottom=0;right=0;fontStyle=1;overflow=hidden;fontColor=#000000;labelBorderColor=none;swimlaneFillColor=none;swimlaneLine=1;shadow=0;" vertex="1" parent="87">
                    <mxGeometry width="30" height="29" as="geometry">
                        <mxRectangle width="30" height="29" as="alternateBounds"/>
                    </mxGeometry>
                </mxCell>
                <mxCell id="89" value="id INT NOT_NULL" style="shape=partialRectangle;connectable=0;fillColor=none;top=0;left=0;bottom=0;right=0;align=left;spacingLeft=6;fontStyle=5;overflow=hidden;fontColor=#000000;labelBorderColor=none;swimlaneFillColor=none;swimlaneLine=1;shadow=0;" vertex="1" parent="87">
                    <mxGeometry x="30" width="281" height="29" as="geometry">
                        <mxRectangle width="281" height="29" as="alternateBounds"/>
                    </mxGeometry>
                </mxCell>
                <mxCell id="90" value="" style="shape=tableRow;horizontal=0;startSize=0;swimlaneHead=0;swimlaneBody=0;fillColor=none;collapsible=0;dropTarget=0;points=[[0,0.5],[1,0.5]];portConstraint=eastwest;top=0;left=0;right=0;bottom=0;fontColor=#000000;labelBorderColor=none;swimlaneFillColor=none;swimlaneLine=1;shadow=0;" vertex="1" parent="86">
                    <mxGeometry y="59" width="311" height="30" as="geometry"/>
                </mxCell>
                <mxCell id="91" value="" style="shape=partialRectangle;connectable=0;fillColor=none;top=0;left=0;bottom=0;right=0;editable=1;overflow=hidden;fontColor=#000000;labelBorderColor=none;swimlaneFillColor=none;swimlaneLine=1;shadow=0;" vertex="1" parent="90">
                    <mxGeometry width="30" height="30" as="geometry">
                        <mxRectangle width="30" height="30" as="alternateBounds"/>
                    </mxGeometry>
                </mxCell>
                <mxCell id="92" value="type_name VARCHAR(255) NOT_NULL" style="shape=partialRectangle;connectable=0;fillColor=none;top=0;left=0;bottom=0;right=0;align=left;spacingLeft=6;overflow=hidden;fontColor=#000000;labelBorderColor=none;swimlaneFillColor=none;swimlaneLine=1;shadow=0;" vertex="1" parent="90">
                    <mxGeometry x="30" width="281" height="30" as="geometry">
                        <mxRectangle width="281" height="30" as="alternateBounds"/>
                    </mxGeometry>
                </mxCell>
                <mxCell id="93" value="" style="shape=tableRow;horizontal=0;startSize=0;swimlaneHead=0;swimlaneBody=0;fillColor=none;collapsible=0;dropTarget=0;points=[[0,0.5],[1,0.5]];portConstraint=eastwest;top=0;left=0;right=0;bottom=0;fontColor=#000000;labelBorderColor=none;swimlaneFillColor=none;swimlaneLine=1;shadow=0;" vertex="1" parent="86">
                    <mxGeometry y="89" width="311" height="30" as="geometry"/>
                </mxCell>
                <mxCell id="94" value="" style="shape=partialRectangle;connectable=0;fillColor=none;top=0;left=0;bottom=0;right=0;editable=1;overflow=hidden;fontColor=#000000;labelBorderColor=none;swimlaneFillColor=none;swimlaneLine=1;shadow=0;" vertex="1" parent="93">
                    <mxGeometry width="30" height="30" as="geometry">
                        <mxRectangle width="30" height="30" as="alternateBounds"/>
                    </mxGeometry>
                </mxCell>
                <mxCell id="95" value="description VARCHAR(255) " style="shape=partialRectangle;connectable=0;fillColor=none;top=0;left=0;bottom=0;right=0;align=left;spacingLeft=6;overflow=hidden;fontColor=#000000;labelBorderColor=none;swimlaneFillColor=none;swimlaneLine=1;shadow=0;" vertex="1" parent="93">
                    <mxGeometry x="30" width="281" height="30" as="geometry">
                        <mxRectangle width="281" height="30" as="alternateBounds"/>
                    </mxGeometry>
                </mxCell>
                <mxCell id="102" value="" style="shape=tableRow;horizontal=0;startSize=0;swimlaneHead=0;swimlaneBody=0;fillColor=none;collapsible=0;dropTarget=0;points=[[0,0.5],[1,0.5]];portConstraint=eastwest;top=0;left=0;right=0;bottom=0;fontColor=#000000;labelBorderColor=none;swimlaneFillColor=none;swimlaneLine=1;shadow=0;" vertex="1" parent="86">
                    <mxGeometry y="119" width="311" height="30" as="geometry"/>
                </mxCell>
                <mxCell id="103" value="FK" style="shape=partialRectangle;connectable=0;fillColor=none;top=0;left=0;bottom=0;right=0;editable=1;overflow=hidden;fontColor=#000000;labelBorderColor=none;swimlaneFillColor=none;swimlaneLine=1;shadow=0;" vertex="1" parent="102">
                    <mxGeometry width="30" height="30" as="geometry">
                        <mxRectangle width="30" height="30" as="alternateBounds"/>
                    </mxGeometry>
                </mxCell>
                <mxCell id="104" value="created_by INT NOT_NULL" style="shape=partialRectangle;connectable=0;fillColor=none;top=0;left=0;bottom=0;right=0;align=left;spacingLeft=6;overflow=hidden;fontColor=#000000;labelBorderColor=none;swimlaneFillColor=none;swimlaneLine=1;shadow=0;" vertex="1" parent="102">
                    <mxGeometry x="30" width="281" height="30" as="geometry">
                        <mxRectangle width="281" height="30" as="alternateBounds"/>
                    </mxGeometry>
                </mxCell>
                <mxCell id="105" value="" style="shape=tableRow;horizontal=0;startSize=0;swimlaneHead=0;swimlaneBody=0;fillColor=none;collapsible=0;dropTarget=0;points=[[0,0.5],[1,0.5]];portConstraint=eastwest;top=0;left=0;right=0;bottom=0;fontColor=#000000;labelBorderColor=none;swimlaneFillColor=none;swimlaneLine=1;shadow=0;" vertex="1" parent="86">
                    <mxGeometry y="149" width="311" height="30" as="geometry"/>
                </mxCell>
                <mxCell id="106" value="" style="shape=partialRectangle;connectable=0;fillColor=none;top=0;left=0;bottom=0;right=0;editable=1;overflow=hidden;fontColor=#000000;labelBorderColor=none;swimlaneFillColor=none;swimlaneLine=1;shadow=0;" vertex="1" parent="105">
                    <mxGeometry width="30" height="30" as="geometry">
                        <mxRectangle width="30" height="30" as="alternateBounds"/>
                    </mxGeometry>
                </mxCell>
                <mxCell id="107" value="created_at DATETIME NOT_NULL" style="shape=partialRectangle;connectable=0;fillColor=none;top=0;left=0;bottom=0;right=0;align=left;spacingLeft=6;overflow=hidden;fontColor=#000000;labelBorderColor=none;swimlaneFillColor=none;swimlaneLine=1;shadow=0;" vertex="1" parent="105">
                    <mxGeometry x="30" width="281" height="30" as="geometry">
                        <mxRectangle width="281" height="30" as="alternateBounds"/>
                    </mxGeometry>
                </mxCell>
                <mxCell id="108" value="" style="shape=tableRow;horizontal=0;startSize=0;swimlaneHead=0;swimlaneBody=0;fillColor=none;collapsible=0;dropTarget=0;points=[[0,0.5],[1,0.5]];portConstraint=eastwest;top=0;left=0;right=0;bottom=0;fontColor=#000000;labelBorderColor=none;swimlaneFillColor=none;swimlaneLine=1;shadow=0;" vertex="1" parent="86">
                    <mxGeometry y="179" width="311" height="30" as="geometry"/>
                </mxCell>
                <mxCell id="109" value="FK" style="shape=partialRectangle;connectable=0;fillColor=none;top=0;left=0;bottom=0;right=0;editable=1;overflow=hidden;fontColor=#000000;labelBorderColor=none;swimlaneFillColor=none;swimlaneLine=1;shadow=0;" vertex="1" parent="108">
                    <mxGeometry width="30" height="30" as="geometry">
                        <mxRectangle width="30" height="30" as="alternateBounds"/>
                    </mxGeometry>
                </mxCell>
                <mxCell id="110" value="updated_by INT" style="shape=partialRectangle;connectable=0;fillColor=none;top=0;left=0;bottom=0;right=0;align=left;spacingLeft=6;overflow=hidden;fontColor=#000000;labelBorderColor=none;swimlaneFillColor=none;swimlaneLine=1;shadow=0;" vertex="1" parent="108">
                    <mxGeometry x="30" width="281" height="30" as="geometry">
                        <mxRectangle width="281" height="30" as="alternateBounds"/>
                    </mxGeometry>
                </mxCell>
                <mxCell id="111" value="" style="shape=tableRow;horizontal=0;startSize=0;swimlaneHead=0;swimlaneBody=0;fillColor=none;collapsible=0;dropTarget=0;points=[[0,0.5],[1,0.5]];portConstraint=eastwest;top=0;left=0;right=0;bottom=0;fontColor=#000000;labelBorderColor=none;swimlaneFillColor=none;swimlaneLine=1;shadow=0;" vertex="1" parent="86">
                    <mxGeometry y="209" width="311" height="30" as="geometry"/>
                </mxCell>
                <mxCell id="112" value="" style="shape=partialRectangle;connectable=0;fillColor=none;top=0;left=0;bottom=0;right=0;editable=1;overflow=hidden;fontColor=#000000;labelBorderColor=none;swimlaneFillColor=none;swimlaneLine=1;shadow=0;" vertex="1" parent="111">
                    <mxGeometry width="30" height="30" as="geometry">
                        <mxRectangle width="30" height="30" as="alternateBounds"/>
                    </mxGeometry>
                </mxCell>
                <mxCell id="113" value="updated_at DATETIME" style="shape=partialRectangle;connectable=0;fillColor=none;top=0;left=0;bottom=0;right=0;align=left;spacingLeft=6;overflow=hidden;fontColor=#000000;labelBorderColor=none;swimlaneFillColor=none;swimlaneLine=1;shadow=0;" vertex="1" parent="111">
                    <mxGeometry x="30" width="281" height="30" as="geometry">
                        <mxRectangle width="281" height="30" as="alternateBounds"/>
                    </mxGeometry>
                </mxCell>
                <mxCell id="114" value="" style="shape=tableRow;horizontal=0;startSize=0;swimlaneHead=0;swimlaneBody=0;fillColor=none;collapsible=0;dropTarget=0;points=[[0,0.5],[1,0.5]];portConstraint=eastwest;top=0;left=0;right=0;bottom=0;fontColor=#000000;labelBorderColor=none;swimlaneFillColor=none;swimlaneLine=1;shadow=0;" vertex="1" parent="86">
                    <mxGeometry y="239" width="311" height="30" as="geometry"/>
                </mxCell>
                <mxCell id="115" value="" style="shape=partialRectangle;connectable=0;fillColor=none;top=0;left=0;bottom=0;right=0;editable=1;overflow=hidden;fontColor=#000000;labelBorderColor=none;swimlaneFillColor=none;swimlaneLine=1;shadow=0;" vertex="1" parent="114">
                    <mxGeometry width="30" height="30" as="geometry">
                        <mxRectangle width="30" height="30" as="alternateBounds"/>
                    </mxGeometry>
                </mxCell>
                <mxCell id="116" value="status INT " style="shape=partialRectangle;connectable=0;fillColor=none;top=0;left=0;bottom=0;right=0;align=left;spacingLeft=6;overflow=hidden;fontColor=#000000;labelBorderColor=none;swimlaneFillColor=none;swimlaneLine=1;shadow=0;" vertex="1" parent="114">
                    <mxGeometry x="30" width="281" height="30" as="geometry">
                        <mxRectangle width="281" height="30" as="alternateBounds"/>
                    </mxGeometry>
                </mxCell>
                <mxCell id="117" value="" style="shape=tableRow;horizontal=0;startSize=0;swimlaneHead=0;swimlaneBody=0;fillColor=none;collapsible=0;dropTarget=0;points=[[0,0.5],[1,0.5]];portConstraint=eastwest;top=0;left=0;right=0;bottom=0;fontColor=#000000;labelBorderColor=none;swimlaneFillColor=none;swimlaneLine=1;shadow=0;" vertex="1" parent="86">
                    <mxGeometry y="269" width="311" height="30" as="geometry"/>
                </mxCell>
                <mxCell id="118" value="" style="shape=partialRectangle;connectable=0;fillColor=none;top=0;left=0;bottom=0;right=0;editable=1;overflow=hidden;fontColor=#000000;labelBorderColor=none;swimlaneFillColor=none;swimlaneLine=1;shadow=0;" vertex="1" parent="117">
                    <mxGeometry width="30" height="30" as="geometry">
                        <mxRectangle width="30" height="30" as="alternateBounds"/>
                    </mxGeometry>
                </mxCell>
                <mxCell id="119" value="del_flag BOOL NOT_NULL" style="shape=partialRectangle;connectable=0;fillColor=none;top=0;left=0;bottom=0;right=0;align=left;spacingLeft=6;overflow=hidden;fontColor=#000000;labelBorderColor=none;swimlaneFillColor=none;swimlaneLine=1;shadow=0;" vertex="1" parent="117">
                    <mxGeometry x="30" width="281" height="30" as="geometry">
                        <mxRectangle width="281" height="30" as="alternateBounds"/>
                    </mxGeometry>
                </mxCell>
                <mxCell id="120" value="location" style="shape=table;startSize=30;container=1;collapsible=1;childLayout=tableLayout;fixedRows=1;rowLines=0;fontStyle=1;align=center;resizeLast=1;fontColor=#000000;labelBorderColor=none;swimlaneFillColor=none;fillColor=none;strokeColor=#000000;strokeWidth=1;swimlaneLine=1;shadow=0;rounded=1;" vertex="1" parent="1">
                    <mxGeometry x="-385" y="4" width="311" height="269.38" as="geometry"/>
                </mxCell>
                <mxCell id="121" value="" style="shape=tableRow;horizontal=0;startSize=0;swimlaneHead=0;swimlaneBody=0;fillColor=none;collapsible=0;dropTarget=0;points=[[0,0.5],[1,0.5]];portConstraint=eastwest;top=0;left=0;right=0;bottom=1;fontColor=#000000;labelBorderColor=none;swimlaneFillColor=none;swimlaneLine=1;shadow=0;strokeColor=#000000;" vertex="1" parent="120">
                    <mxGeometry y="30" width="311" height="29" as="geometry"/>
                </mxCell>
                <mxCell id="122" value="PK" style="shape=partialRectangle;connectable=0;fillColor=none;top=0;left=0;bottom=0;right=0;fontStyle=1;overflow=hidden;fontColor=#000000;labelBorderColor=none;swimlaneFillColor=none;swimlaneLine=1;shadow=0;" vertex="1" parent="121">
                    <mxGeometry width="30" height="29" as="geometry">
                        <mxRectangle width="30" height="29" as="alternateBounds"/>
                    </mxGeometry>
                </mxCell>
                <mxCell id="123" value="id INT NOT_NULL" style="shape=partialRectangle;connectable=0;fillColor=none;top=0;left=0;bottom=0;right=0;align=left;spacingLeft=6;fontStyle=5;overflow=hidden;fontColor=#000000;labelBorderColor=none;swimlaneFillColor=none;swimlaneLine=1;shadow=0;" vertex="1" parent="121">
                    <mxGeometry x="30" width="281" height="29" as="geometry">
                        <mxRectangle width="281" height="29" as="alternateBounds"/>
                    </mxGeometry>
                </mxCell>
                <mxCell id="124" value="" style="shape=tableRow;horizontal=0;startSize=0;swimlaneHead=0;swimlaneBody=0;fillColor=none;collapsible=0;dropTarget=0;points=[[0,0.5],[1,0.5]];portConstraint=eastwest;top=0;left=0;right=0;bottom=0;fontColor=#000000;labelBorderColor=none;swimlaneFillColor=none;swimlaneLine=1;shadow=0;" vertex="1" parent="120">
                    <mxGeometry y="59" width="311" height="30" as="geometry"/>
                </mxCell>
                <mxCell id="125" value="" style="shape=partialRectangle;connectable=0;fillColor=none;top=0;left=0;bottom=0;right=0;editable=1;overflow=hidden;fontColor=#000000;labelBorderColor=none;swimlaneFillColor=none;swimlaneLine=1;shadow=0;" vertex="1" parent="124">
                    <mxGeometry width="30" height="30" as="geometry">
                        <mxRectangle width="30" height="30" as="alternateBounds"/>
                    </mxGeometry>
                </mxCell>
                <mxCell id="126" value="name VARCHAR(255) NOT_NULL" style="shape=partialRectangle;connectable=0;fillColor=none;top=0;left=0;bottom=0;right=0;align=left;spacingLeft=6;overflow=hidden;fontColor=#000000;labelBorderColor=none;swimlaneFillColor=none;swimlaneLine=1;shadow=0;" vertex="1" parent="124">
                    <mxGeometry x="30" width="281" height="30" as="geometry">
                        <mxRectangle width="281" height="30" as="alternateBounds"/>
                    </mxGeometry>
                </mxCell>
                <mxCell id="127" value="" style="shape=tableRow;horizontal=0;startSize=0;swimlaneHead=0;swimlaneBody=0;fillColor=none;collapsible=0;dropTarget=0;points=[[0,0.5],[1,0.5]];portConstraint=eastwest;top=0;left=0;right=0;bottom=0;fontColor=#000000;labelBorderColor=none;swimlaneFillColor=none;swimlaneLine=1;shadow=0;" vertex="1" parent="120">
                    <mxGeometry y="89" width="311" height="30" as="geometry"/>
                </mxCell>
                <mxCell id="128" value="" style="shape=partialRectangle;connectable=0;fillColor=none;top=0;left=0;bottom=0;right=0;editable=1;overflow=hidden;fontColor=#000000;labelBorderColor=none;swimlaneFillColor=none;swimlaneLine=1;shadow=0;" vertex="1" parent="127">
                    <mxGeometry width="30" height="30" as="geometry">
                        <mxRectangle width="30" height="30" as="alternateBounds"/>
                    </mxGeometry>
                </mxCell>
                <mxCell id="129" value="code VARCHAR(255) NOT_NULL" style="shape=partialRectangle;connectable=0;fillColor=none;top=0;left=0;bottom=0;right=0;align=left;spacingLeft=6;overflow=hidden;fontColor=#000000;labelBorderColor=none;swimlaneFillColor=none;swimlaneLine=1;shadow=0;" vertex="1" parent="127">
                    <mxGeometry x="30" width="281" height="30" as="geometry">
                        <mxRectangle width="281" height="30" as="alternateBounds"/>
                    </mxGeometry>
                </mxCell>
                <mxCell id="130" value="" style="shape=tableRow;horizontal=0;startSize=0;swimlaneHead=0;swimlaneBody=0;fillColor=none;collapsible=0;dropTarget=0;points=[[0,0.5],[1,0.5]];portConstraint=eastwest;top=0;left=0;right=0;bottom=0;fontColor=#000000;labelBorderColor=none;swimlaneFillColor=none;swimlaneLine=1;shadow=0;" vertex="1" parent="120">
                    <mxGeometry y="119" width="311" height="30" as="geometry"/>
                </mxCell>
                <mxCell id="131" value="FK" style="shape=partialRectangle;connectable=0;fillColor=none;top=0;left=0;bottom=0;right=0;editable=1;overflow=hidden;fontColor=#000000;labelBorderColor=none;swimlaneFillColor=none;swimlaneLine=1;shadow=0;" vertex="1" parent="130">
                    <mxGeometry width="30" height="30" as="geometry">
                        <mxRectangle width="30" height="30" as="alternateBounds"/>
                    </mxGeometry>
                </mxCell>
                <mxCell id="132" value="created_by INT NOT_NULL" style="shape=partialRectangle;connectable=0;fillColor=none;top=0;left=0;bottom=0;right=0;align=left;spacingLeft=6;overflow=hidden;fontColor=#000000;labelBorderColor=none;swimlaneFillColor=none;swimlaneLine=1;shadow=0;" vertex="1" parent="130">
                    <mxGeometry x="30" width="281" height="30" as="geometry">
                        <mxRectangle width="281" height="30" as="alternateBounds"/>
                    </mxGeometry>
                </mxCell>
                <mxCell id="133" value="" style="shape=tableRow;horizontal=0;startSize=0;swimlaneHead=0;swimlaneBody=0;fillColor=none;collapsible=0;dropTarget=0;points=[[0,0.5],[1,0.5]];portConstraint=eastwest;top=0;left=0;right=0;bottom=0;fontColor=#000000;labelBorderColor=none;swimlaneFillColor=none;swimlaneLine=1;shadow=0;" vertex="1" parent="120">
                    <mxGeometry y="149" width="311" height="30" as="geometry"/>
                </mxCell>
                <mxCell id="134" value="" style="shape=partialRectangle;connectable=0;fillColor=none;top=0;left=0;bottom=0;right=0;editable=1;overflow=hidden;fontColor=#000000;labelBorderColor=none;swimlaneFillColor=none;swimlaneLine=1;shadow=0;" vertex="1" parent="133">
                    <mxGeometry width="30" height="30" as="geometry">
                        <mxRectangle width="30" height="30" as="alternateBounds"/>
                    </mxGeometry>
                </mxCell>
                <mxCell id="135" value="created_at DATETIME NOT_NULL" style="shape=partialRectangle;connectable=0;fillColor=none;top=0;left=0;bottom=0;right=0;align=left;spacingLeft=6;overflow=hidden;fontColor=#000000;labelBorderColor=none;swimlaneFillColor=none;swimlaneLine=1;shadow=0;" vertex="1" parent="133">
                    <mxGeometry x="30" width="281" height="30" as="geometry">
                        <mxRectangle width="281" height="30" as="alternateBounds"/>
                    </mxGeometry>
                </mxCell>
                <mxCell id="136" value="" style="shape=tableRow;horizontal=0;startSize=0;swimlaneHead=0;swimlaneBody=0;fillColor=none;collapsible=0;dropTarget=0;points=[[0,0.5],[1,0.5]];portConstraint=eastwest;top=0;left=0;right=0;bottom=0;fontColor=#000000;labelBorderColor=none;swimlaneFillColor=none;swimlaneLine=1;shadow=0;" vertex="1" parent="120">
                    <mxGeometry y="179" width="311" height="30" as="geometry"/>
                </mxCell>
                <mxCell id="137" value="FK" style="shape=partialRectangle;connectable=0;fillColor=none;top=0;left=0;bottom=0;right=0;editable=1;overflow=hidden;fontColor=#000000;labelBorderColor=none;swimlaneFillColor=none;swimlaneLine=1;shadow=0;" vertex="1" parent="136">
                    <mxGeometry width="30" height="30" as="geometry">
                        <mxRectangle width="30" height="30" as="alternateBounds"/>
                    </mxGeometry>
                </mxCell>
                <mxCell id="138" value="updated_by INT" style="shape=partialRectangle;connectable=0;fillColor=none;top=0;left=0;bottom=0;right=0;align=left;spacingLeft=6;overflow=hidden;fontColor=#000000;labelBorderColor=none;swimlaneFillColor=none;swimlaneLine=1;shadow=0;" vertex="1" parent="136">
                    <mxGeometry x="30" width="281" height="30" as="geometry">
                        <mxRectangle width="281" height="30" as="alternateBounds"/>
                    </mxGeometry>
                </mxCell>
                <mxCell id="139" value="" style="shape=tableRow;horizontal=0;startSize=0;swimlaneHead=0;swimlaneBody=0;fillColor=none;collapsible=0;dropTarget=0;points=[[0,0.5],[1,0.5]];portConstraint=eastwest;top=0;left=0;right=0;bottom=0;fontColor=#000000;labelBorderColor=none;swimlaneFillColor=none;swimlaneLine=1;shadow=0;" vertex="1" parent="120">
                    <mxGeometry y="209" width="311" height="30" as="geometry"/>
                </mxCell>
                <mxCell id="140" value="" style="shape=partialRectangle;connectable=0;fillColor=none;top=0;left=0;bottom=0;right=0;editable=1;overflow=hidden;fontColor=#000000;labelBorderColor=none;swimlaneFillColor=none;swimlaneLine=1;shadow=0;" vertex="1" parent="139">
                    <mxGeometry width="30" height="30" as="geometry">
                        <mxRectangle width="30" height="30" as="alternateBounds"/>
                    </mxGeometry>
                </mxCell>
                <mxCell id="141" value="updated_at DATETIME" style="shape=partialRectangle;connectable=0;fillColor=none;top=0;left=0;bottom=0;right=0;align=left;spacingLeft=6;overflow=hidden;fontColor=#000000;labelBorderColor=none;swimlaneFillColor=none;swimlaneLine=1;shadow=0;" vertex="1" parent="139">
                    <mxGeometry x="30" width="281" height="30" as="geometry">
                        <mxRectangle width="281" height="30" as="alternateBounds"/>
                    </mxGeometry>
                </mxCell>
                <mxCell id="145" value="" style="shape=tableRow;horizontal=0;startSize=0;swimlaneHead=0;swimlaneBody=0;fillColor=none;collapsible=0;dropTarget=0;points=[[0,0.5],[1,0.5]];portConstraint=eastwest;top=0;left=0;right=0;bottom=0;fontColor=#000000;labelBorderColor=none;swimlaneFillColor=none;swimlaneLine=1;shadow=0;" vertex="1" parent="120">
                    <mxGeometry y="239" width="311" height="30" as="geometry"/>
                </mxCell>
                <mxCell id="146" value="" style="shape=partialRectangle;connectable=0;fillColor=none;top=0;left=0;bottom=0;right=0;editable=1;overflow=hidden;fontColor=#000000;labelBorderColor=none;swimlaneFillColor=none;swimlaneLine=1;shadow=0;" vertex="1" parent="145">
                    <mxGeometry width="30" height="30" as="geometry">
                        <mxRectangle width="30" height="30" as="alternateBounds"/>
                    </mxGeometry>
                </mxCell>
                <mxCell id="147" value="del_flag BOOL NOT_NULL" style="shape=partialRectangle;connectable=0;fillColor=none;top=0;left=0;bottom=0;right=0;align=left;spacingLeft=6;overflow=hidden;fontColor=#000000;labelBorderColor=none;swimlaneFillColor=none;swimlaneLine=1;shadow=0;" vertex="1" parent="145">
                    <mxGeometry x="30" width="281" height="30" as="geometry">
                        <mxRectangle width="281" height="30" as="alternateBounds"/>
                    </mxGeometry>
                </mxCell>
                <mxCell id="148" value="user" style="shape=table;startSize=30;container=1;collapsible=1;childLayout=tableLayout;fixedRows=1;rowLines=0;fontStyle=1;align=center;resizeLast=1;fontColor=#000000;labelBorderColor=none;swimlaneFillColor=none;fillColor=none;strokeColor=#000000;strokeWidth=1;swimlaneLine=1;shadow=0;rounded=1;" vertex="1" parent="1">
                    <mxGeometry x="-344" y="446" width="274" height="359.38" as="geometry"/>
                </mxCell>
                <mxCell id="149" value="" style="shape=tableRow;horizontal=0;startSize=0;swimlaneHead=0;swimlaneBody=0;fillColor=none;collapsible=0;dropTarget=0;points=[[0,0.5],[1,0.5]];portConstraint=eastwest;top=0;left=0;right=0;bottom=1;fontColor=#000000;labelBorderColor=none;swimlaneFillColor=none;swimlaneLine=1;shadow=0;strokeColor=#000000;" vertex="1" parent="148">
                    <mxGeometry y="30" width="274" height="29" as="geometry"/>
                </mxCell>
                <mxCell id="150" value="PK" style="shape=partialRectangle;connectable=0;fillColor=none;top=0;left=0;bottom=0;right=0;fontStyle=1;overflow=hidden;fontColor=#000000;labelBorderColor=none;swimlaneFillColor=none;swimlaneLine=1;shadow=0;" vertex="1" parent="149">
                    <mxGeometry width="30" height="29" as="geometry">
                        <mxRectangle width="30" height="29" as="alternateBounds"/>
                    </mxGeometry>
                </mxCell>
                <mxCell id="151" value="id INT NOT_NULL" style="shape=partialRectangle;connectable=0;fillColor=none;top=0;left=0;bottom=0;right=0;align=left;spacingLeft=6;fontStyle=5;overflow=hidden;fontColor=#000000;labelBorderColor=none;swimlaneFillColor=none;swimlaneLine=1;shadow=0;" vertex="1" parent="149">
                    <mxGeometry x="30" width="244" height="29" as="geometry">
                        <mxRectangle width="244" height="29" as="alternateBounds"/>
                    </mxGeometry>
                </mxCell>
                <mxCell id="152" value="" style="shape=tableRow;horizontal=0;startSize=0;swimlaneHead=0;swimlaneBody=0;fillColor=none;collapsible=0;dropTarget=0;points=[[0,0.5],[1,0.5]];portConstraint=eastwest;top=0;left=0;right=0;bottom=0;fontColor=#000000;labelBorderColor=none;swimlaneFillColor=none;swimlaneLine=1;shadow=0;" vertex="1" parent="148">
                    <mxGeometry y="59" width="274" height="30" as="geometry"/>
                </mxCell>
                <mxCell id="153" value="" style="shape=partialRectangle;connectable=0;fillColor=none;top=0;left=0;bottom=0;right=0;editable=1;overflow=hidden;fontColor=#000000;labelBorderColor=none;swimlaneFillColor=none;swimlaneLine=1;shadow=0;" vertex="1" parent="152">
                    <mxGeometry width="30" height="30" as="geometry">
                        <mxRectangle width="30" height="30" as="alternateBounds"/>
                    </mxGeometry>
                </mxCell>
                <mxCell id="154" value="name VARCHAR(255) NOT_NULL" style="shape=partialRectangle;connectable=0;fillColor=none;top=0;left=0;bottom=0;right=0;align=left;spacingLeft=6;overflow=hidden;fontColor=#000000;labelBorderColor=none;swimlaneFillColor=none;swimlaneLine=1;shadow=0;" vertex="1" parent="152">
                    <mxGeometry x="30" width="244" height="30" as="geometry">
                        <mxRectangle width="244" height="30" as="alternateBounds"/>
                    </mxGeometry>
                </mxCell>
                <mxCell id="155" value="" style="shape=tableRow;horizontal=0;startSize=0;swimlaneHead=0;swimlaneBody=0;fillColor=none;collapsible=0;dropTarget=0;points=[[0,0.5],[1,0.5]];portConstraint=eastwest;top=0;left=0;right=0;bottom=0;fontColor=#000000;labelBorderColor=none;swimlaneFillColor=none;swimlaneLine=1;shadow=0;" vertex="1" parent="148">
                    <mxGeometry y="89" width="274" height="30" as="geometry"/>
                </mxCell>
                <mxCell id="156" value="" style="shape=partialRectangle;connectable=0;fillColor=none;top=0;left=0;bottom=0;right=0;editable=1;overflow=hidden;fontColor=#000000;labelBorderColor=none;swimlaneFillColor=none;swimlaneLine=1;shadow=0;" vertex="1" parent="155">
                    <mxGeometry width="30" height="30" as="geometry">
                        <mxRectangle width="30" height="30" as="alternateBounds"/>
                    </mxGeometry>
                </mxCell>
                <mxCell id="157" value="email VARCHAR(255) NOT_NULL" style="shape=partialRectangle;connectable=0;fillColor=none;top=0;left=0;bottom=0;right=0;align=left;spacingLeft=6;overflow=hidden;fontColor=#000000;labelBorderColor=none;swimlaneFillColor=none;swimlaneLine=1;shadow=0;" vertex="1" parent="155">
                    <mxGeometry x="30" width="244" height="30" as="geometry">
                        <mxRectangle width="244" height="30" as="alternateBounds"/>
                    </mxGeometry>
                </mxCell>
                <mxCell id="182" value="" style="shape=tableRow;horizontal=0;startSize=0;swimlaneHead=0;swimlaneBody=0;fillColor=none;collapsible=0;dropTarget=0;points=[[0,0.5],[1,0.5]];portConstraint=eastwest;top=0;left=0;right=0;bottom=0;fontColor=#000000;labelBorderColor=none;swimlaneFillColor=none;swimlaneLine=1;shadow=0;" vertex="1" parent="148">
                    <mxGeometry y="119" width="274" height="30" as="geometry"/>
                </mxCell>
                <mxCell id="183" value="" style="shape=partialRectangle;connectable=0;fillColor=none;top=0;left=0;bottom=0;right=0;editable=1;overflow=hidden;fontColor=#000000;labelBorderColor=none;swimlaneFillColor=none;swimlaneLine=1;shadow=0;" vertex="1" parent="182">
                    <mxGeometry width="30" height="30" as="geometry">
                        <mxRectangle width="30" height="30" as="alternateBounds"/>
                    </mxGeometry>
                </mxCell>
                <mxCell id="184" value="password VARCHAR(50) NOT_NULL" style="shape=partialRectangle;connectable=0;fillColor=none;top=0;left=0;bottom=0;right=0;align=left;spacingLeft=6;overflow=hidden;fontColor=#000000;labelBorderColor=none;swimlaneFillColor=none;swimlaneLine=1;shadow=0;" vertex="1" parent="182">
                    <mxGeometry x="30" width="244" height="30" as="geometry">
                        <mxRectangle width="244" height="30" as="alternateBounds"/>
                    </mxGeometry>
                </mxCell>
                <mxCell id="158" value="" style="shape=tableRow;horizontal=0;startSize=0;swimlaneHead=0;swimlaneBody=0;fillColor=none;collapsible=0;dropTarget=0;points=[[0,0.5],[1,0.5]];portConstraint=eastwest;top=0;left=0;right=0;bottom=0;fontColor=#000000;labelBorderColor=none;swimlaneFillColor=none;swimlaneLine=1;shadow=0;" vertex="1" parent="148">
                    <mxGeometry y="149" width="274" height="30" as="geometry"/>
                </mxCell>
                <mxCell id="159" value="" style="shape=partialRectangle;connectable=0;fillColor=none;top=0;left=0;bottom=0;right=0;editable=1;overflow=hidden;fontColor=#000000;labelBorderColor=none;swimlaneFillColor=none;swimlaneLine=1;shadow=0;" vertex="1" parent="158">
                    <mxGeometry width="30" height="30" as="geometry">
                        <mxRectangle width="30" height="30" as="alternateBounds"/>
                    </mxGeometry>
                </mxCell>
                <mxCell id="160" value="phone VARCHAR(20) NOT_NULL" style="shape=partialRectangle;connectable=0;fillColor=none;top=0;left=0;bottom=0;right=0;align=left;spacingLeft=6;overflow=hidden;fontColor=#000000;labelBorderColor=none;swimlaneFillColor=none;swimlaneLine=1;shadow=0;" vertex="1" parent="158">
                    <mxGeometry x="30" width="244" height="30" as="geometry">
                        <mxRectangle width="244" height="30" as="alternateBounds"/>
                    </mxGeometry>
                </mxCell>
                <mxCell id="167" value="" style="shape=tableRow;horizontal=0;startSize=0;swimlaneHead=0;swimlaneBody=0;fillColor=none;collapsible=0;dropTarget=0;points=[[0,0.5],[1,0.5]];portConstraint=eastwest;top=0;left=0;right=0;bottom=0;fontColor=#000000;labelBorderColor=none;swimlaneFillColor=none;swimlaneLine=1;shadow=0;" vertex="1" parent="148">
                    <mxGeometry y="179" width="274" height="30" as="geometry"/>
                </mxCell>
                <mxCell id="168" value="FK" style="shape=partialRectangle;connectable=0;fillColor=none;top=0;left=0;bottom=0;right=0;editable=1;overflow=hidden;fontColor=#000000;labelBorderColor=none;swimlaneFillColor=none;swimlaneLine=1;shadow=0;" vertex="1" parent="167">
                    <mxGeometry width="30" height="30" as="geometry">
                        <mxRectangle width="30" height="30" as="alternateBounds"/>
                    </mxGeometry>
                </mxCell>
                <mxCell id="169" value="created_by INT NOT_NULL" style="shape=partialRectangle;connectable=0;fillColor=none;top=0;left=0;bottom=0;right=0;align=left;spacingLeft=6;overflow=hidden;fontColor=#000000;labelBorderColor=none;swimlaneFillColor=none;swimlaneLine=1;shadow=0;" vertex="1" parent="167">
                    <mxGeometry x="30" width="244" height="30" as="geometry">
                        <mxRectangle width="244" height="30" as="alternateBounds"/>
                    </mxGeometry>
                </mxCell>
                <mxCell id="170" value="" style="shape=tableRow;horizontal=0;startSize=0;swimlaneHead=0;swimlaneBody=0;fillColor=none;collapsible=0;dropTarget=0;points=[[0,0.5],[1,0.5]];portConstraint=eastwest;top=0;left=0;right=0;bottom=0;fontColor=#000000;labelBorderColor=none;swimlaneFillColor=none;swimlaneLine=1;shadow=0;" vertex="1" parent="148">
                    <mxGeometry y="209" width="274" height="30" as="geometry"/>
                </mxCell>
                <mxCell id="171" value="" style="shape=partialRectangle;connectable=0;fillColor=none;top=0;left=0;bottom=0;right=0;editable=1;overflow=hidden;fontColor=#000000;labelBorderColor=none;swimlaneFillColor=none;swimlaneLine=1;shadow=0;" vertex="1" parent="170">
                    <mxGeometry width="30" height="30" as="geometry">
                        <mxRectangle width="30" height="30" as="alternateBounds"/>
                    </mxGeometry>
                </mxCell>
                <mxCell id="172" value="created_at DATETIME NOT_NULL" style="shape=partialRectangle;connectable=0;fillColor=none;top=0;left=0;bottom=0;right=0;align=left;spacingLeft=6;overflow=hidden;fontColor=#000000;labelBorderColor=none;swimlaneFillColor=none;swimlaneLine=1;shadow=0;" vertex="1" parent="170">
                    <mxGeometry x="30" width="244" height="30" as="geometry">
                        <mxRectangle width="244" height="30" as="alternateBounds"/>
                    </mxGeometry>
                </mxCell>
                <mxCell id="173" value="" style="shape=tableRow;horizontal=0;startSize=0;swimlaneHead=0;swimlaneBody=0;fillColor=none;collapsible=0;dropTarget=0;points=[[0,0.5],[1,0.5]];portConstraint=eastwest;top=0;left=0;right=0;bottom=0;fontColor=#000000;labelBorderColor=none;swimlaneFillColor=none;swimlaneLine=1;shadow=0;" vertex="1" parent="148">
                    <mxGeometry y="239" width="274" height="30" as="geometry"/>
                </mxCell>
                <mxCell id="174" value="FK" style="shape=partialRectangle;connectable=0;fillColor=none;top=0;left=0;bottom=0;right=0;editable=1;overflow=hidden;fontColor=#000000;labelBorderColor=none;swimlaneFillColor=none;swimlaneLine=1;shadow=0;" vertex="1" parent="173">
                    <mxGeometry width="30" height="30" as="geometry">
                        <mxRectangle width="30" height="30" as="alternateBounds"/>
                    </mxGeometry>
                </mxCell>
                <mxCell id="175" value="updated_by INT" style="shape=partialRectangle;connectable=0;fillColor=none;top=0;left=0;bottom=0;right=0;align=left;spacingLeft=6;overflow=hidden;fontColor=#000000;labelBorderColor=none;swimlaneFillColor=none;swimlaneLine=1;shadow=0;" vertex="1" parent="173">
                    <mxGeometry x="30" width="244" height="30" as="geometry">
                        <mxRectangle width="244" height="30" as="alternateBounds"/>
                    </mxGeometry>
                </mxCell>
                <mxCell id="176" value="" style="shape=tableRow;horizontal=0;startSize=0;swimlaneHead=0;swimlaneBody=0;fillColor=none;collapsible=0;dropTarget=0;points=[[0,0.5],[1,0.5]];portConstraint=eastwest;top=0;left=0;right=0;bottom=0;fontColor=#000000;labelBorderColor=none;swimlaneFillColor=none;swimlaneLine=1;shadow=0;" vertex="1" parent="148">
                    <mxGeometry y="269" width="274" height="30" as="geometry"/>
                </mxCell>
                <mxCell id="177" value="" style="shape=partialRectangle;connectable=0;fillColor=none;top=0;left=0;bottom=0;right=0;editable=1;overflow=hidden;fontColor=#000000;labelBorderColor=none;swimlaneFillColor=none;swimlaneLine=1;shadow=0;" vertex="1" parent="176">
                    <mxGeometry width="30" height="30" as="geometry">
                        <mxRectangle width="30" height="30" as="alternateBounds"/>
                    </mxGeometry>
                </mxCell>
                <mxCell id="178" value="updated_at DATETIME" style="shape=partialRectangle;connectable=0;fillColor=none;top=0;left=0;bottom=0;right=0;align=left;spacingLeft=6;overflow=hidden;fontColor=#000000;labelBorderColor=none;swimlaneFillColor=none;swimlaneLine=1;shadow=0;" vertex="1" parent="176">
                    <mxGeometry x="30" width="244" height="30" as="geometry">
                        <mxRectangle width="244" height="30" as="alternateBounds"/>
                    </mxGeometry>
                </mxCell>
                <mxCell id="179" value="" style="shape=tableRow;horizontal=0;startSize=0;swimlaneHead=0;swimlaneBody=0;fillColor=none;collapsible=0;dropTarget=0;points=[[0,0.5],[1,0.5]];portConstraint=eastwest;top=0;left=0;right=0;bottom=0;fontColor=#000000;labelBorderColor=none;swimlaneFillColor=none;swimlaneLine=1;shadow=0;" vertex="1" parent="148">
                    <mxGeometry y="299" width="274" height="30" as="geometry"/>
                </mxCell>
                <mxCell id="180" value="" style="shape=partialRectangle;connectable=0;fillColor=none;top=0;left=0;bottom=0;right=0;editable=1;overflow=hidden;fontColor=#000000;labelBorderColor=none;swimlaneFillColor=none;swimlaneLine=1;shadow=0;" vertex="1" parent="179">
                    <mxGeometry width="30" height="30" as="geometry">
                        <mxRectangle width="30" height="30" as="alternateBounds"/>
                    </mxGeometry>
                </mxCell>
                <mxCell id="181" value="actiove int NOT_NULL" style="shape=partialRectangle;connectable=0;fillColor=none;top=0;left=0;bottom=0;right=0;align=left;spacingLeft=6;overflow=hidden;fontColor=#000000;labelBorderColor=none;swimlaneFillColor=none;swimlaneLine=1;shadow=0;" vertex="1" parent="179">
                    <mxGeometry x="30" width="244" height="30" as="geometry">
                        <mxRectangle width="244" height="30" as="alternateBounds"/>
                    </mxGeometry>
                </mxCell>
                <mxCell id="185" value="" style="shape=tableRow;horizontal=0;startSize=0;swimlaneHead=0;swimlaneBody=0;fillColor=none;collapsible=0;dropTarget=0;points=[[0,0.5],[1,0.5]];portConstraint=eastwest;top=0;left=0;right=0;bottom=0;fontColor=#000000;labelBorderColor=none;swimlaneFillColor=none;swimlaneLine=1;shadow=0;" vertex="1" parent="148">
                    <mxGeometry y="329" width="274" height="30" as="geometry"/>
                </mxCell>
                <mxCell id="186" value="" style="shape=partialRectangle;connectable=0;fillColor=none;top=0;left=0;bottom=0;right=0;editable=1;overflow=hidden;fontColor=#000000;labelBorderColor=none;swimlaneFillColor=none;swimlaneLine=1;shadow=0;" vertex="1" parent="185">
                    <mxGeometry width="30" height="30" as="geometry">
                        <mxRectangle width="30" height="30" as="alternateBounds"/>
                    </mxGeometry>
                </mxCell>
                <mxCell id="187" value="del_flag BOOL NOT_NULL" style="shape=partialRectangle;connectable=0;fillColor=none;top=0;left=0;bottom=0;right=0;align=left;spacingLeft=6;overflow=hidden;fontColor=#000000;labelBorderColor=none;swimlaneFillColor=none;swimlaneLine=1;shadow=0;" vertex="1" parent="185">
                    <mxGeometry x="30" width="244" height="30" as="geometry">
                        <mxRectangle width="244" height="30" as="alternateBounds"/>
                    </mxGeometry>
                </mxCell>
                <mxCell id="189" value="permission" style="shape=table;startSize=30;container=1;collapsible=1;childLayout=tableLayout;fixedRows=1;rowLines=0;fontStyle=1;align=center;resizeLast=1;fontColor=#000000;labelBorderColor=none;swimlaneFillColor=none;fillColor=none;strokeColor=#000000;strokeWidth=1;swimlaneLine=1;shadow=0;rounded=1;" vertex="1" parent="1">
                    <mxGeometry x="421" y="464" width="311" height="269.38" as="geometry"/>
                </mxCell>
                <mxCell id="190" value="" style="shape=tableRow;horizontal=0;startSize=0;swimlaneHead=0;swimlaneBody=0;fillColor=none;collapsible=0;dropTarget=0;points=[[0,0.5],[1,0.5]];portConstraint=eastwest;top=0;left=0;right=0;bottom=1;fontColor=#000000;labelBorderColor=none;swimlaneFillColor=none;swimlaneLine=1;shadow=0;strokeColor=#000000;" vertex="1" parent="189">
                    <mxGeometry y="30" width="311" height="29" as="geometry"/>
                </mxCell>
                <mxCell id="191" value="PK" style="shape=partialRectangle;connectable=0;fillColor=none;top=0;left=0;bottom=0;right=0;fontStyle=1;overflow=hidden;fontColor=#000000;labelBorderColor=none;swimlaneFillColor=none;swimlaneLine=1;shadow=0;" vertex="1" parent="190">
                    <mxGeometry width="30" height="29" as="geometry">
                        <mxRectangle width="30" height="29" as="alternateBounds"/>
                    </mxGeometry>
                </mxCell>
                <mxCell id="192" value="id INT NOT_NULL" style="shape=partialRectangle;connectable=0;fillColor=none;top=0;left=0;bottom=0;right=0;align=left;spacingLeft=6;fontStyle=5;overflow=hidden;fontColor=#000000;labelBorderColor=none;swimlaneFillColor=none;swimlaneLine=1;shadow=0;" vertex="1" parent="190">
                    <mxGeometry x="30" width="281" height="29" as="geometry">
                        <mxRectangle width="281" height="29" as="alternateBounds"/>
                    </mxGeometry>
                </mxCell>
                <mxCell id="193" value="" style="shape=tableRow;horizontal=0;startSize=0;swimlaneHead=0;swimlaneBody=0;fillColor=none;collapsible=0;dropTarget=0;points=[[0,0.5],[1,0.5]];portConstraint=eastwest;top=0;left=0;right=0;bottom=0;fontColor=#000000;labelBorderColor=none;swimlaneFillColor=none;swimlaneLine=1;shadow=0;" vertex="1" parent="189">
                    <mxGeometry y="59" width="311" height="30" as="geometry"/>
                </mxCell>
                <mxCell id="194" value="" style="shape=partialRectangle;connectable=0;fillColor=none;top=0;left=0;bottom=0;right=0;editable=1;overflow=hidden;fontColor=#000000;labelBorderColor=none;swimlaneFillColor=none;swimlaneLine=1;shadow=0;" vertex="1" parent="193">
                    <mxGeometry width="30" height="30" as="geometry">
                        <mxRectangle width="30" height="30" as="alternateBounds"/>
                    </mxGeometry>
                </mxCell>
                <mxCell id="195" value="name VARCHAR(255) NOT_NULL" style="shape=partialRectangle;connectable=0;fillColor=none;top=0;left=0;bottom=0;right=0;align=left;spacingLeft=6;overflow=hidden;fontColor=#000000;labelBorderColor=none;swimlaneFillColor=none;swimlaneLine=1;shadow=0;" vertex="1" parent="193">
                    <mxGeometry x="30" width="281" height="30" as="geometry">
                        <mxRectangle width="281" height="30" as="alternateBounds"/>
                    </mxGeometry>
                </mxCell>
                <mxCell id="196" value="" style="shape=tableRow;horizontal=0;startSize=0;swimlaneHead=0;swimlaneBody=0;fillColor=none;collapsible=0;dropTarget=0;points=[[0,0.5],[1,0.5]];portConstraint=eastwest;top=0;left=0;right=0;bottom=0;fontColor=#000000;labelBorderColor=none;swimlaneFillColor=none;swimlaneLine=1;shadow=0;" vertex="1" parent="189">
                    <mxGeometry y="89" width="311" height="30" as="geometry"/>
                </mxCell>
                <mxCell id="197" value="" style="shape=partialRectangle;connectable=0;fillColor=none;top=0;left=0;bottom=0;right=0;editable=1;overflow=hidden;fontColor=#000000;labelBorderColor=none;swimlaneFillColor=none;swimlaneLine=1;shadow=0;" vertex="1" parent="196">
                    <mxGeometry width="30" height="30" as="geometry">
                        <mxRectangle width="30" height="30" as="alternateBounds"/>
                    </mxGeometry>
                </mxCell>
                <mxCell id="198" value="description VARCHAR(255) NOT_NULL" style="shape=partialRectangle;connectable=0;fillColor=none;top=0;left=0;bottom=0;right=0;align=left;spacingLeft=6;overflow=hidden;fontColor=#000000;labelBorderColor=none;swimlaneFillColor=none;swimlaneLine=1;shadow=0;" vertex="1" parent="196">
                    <mxGeometry x="30" width="281" height="30" as="geometry">
                        <mxRectangle width="281" height="30" as="alternateBounds"/>
                    </mxGeometry>
                </mxCell>
                <mxCell id="205" value="" style="shape=tableRow;horizontal=0;startSize=0;swimlaneHead=0;swimlaneBody=0;fillColor=none;collapsible=0;dropTarget=0;points=[[0,0.5],[1,0.5]];portConstraint=eastwest;top=0;left=0;right=0;bottom=0;fontColor=#000000;labelBorderColor=none;swimlaneFillColor=none;swimlaneLine=1;shadow=0;" vertex="1" parent="189">
                    <mxGeometry y="119" width="311" height="30" as="geometry"/>
                </mxCell>
                <mxCell id="206" value="FK" style="shape=partialRectangle;connectable=0;fillColor=none;top=0;left=0;bottom=0;right=0;editable=1;overflow=hidden;fontColor=#000000;labelBorderColor=none;swimlaneFillColor=none;swimlaneLine=1;shadow=0;" vertex="1" parent="205">
                    <mxGeometry width="30" height="30" as="geometry">
                        <mxRectangle width="30" height="30" as="alternateBounds"/>
                    </mxGeometry>
                </mxCell>
                <mxCell id="207" value="created_by INT NOT_NULL" style="shape=partialRectangle;connectable=0;fillColor=none;top=0;left=0;bottom=0;right=0;align=left;spacingLeft=6;overflow=hidden;fontColor=#000000;labelBorderColor=none;swimlaneFillColor=none;swimlaneLine=1;shadow=0;" vertex="1" parent="205">
                    <mxGeometry x="30" width="281" height="30" as="geometry">
                        <mxRectangle width="281" height="30" as="alternateBounds"/>
                    </mxGeometry>
                </mxCell>
                <mxCell id="208" value="" style="shape=tableRow;horizontal=0;startSize=0;swimlaneHead=0;swimlaneBody=0;fillColor=none;collapsible=0;dropTarget=0;points=[[0,0.5],[1,0.5]];portConstraint=eastwest;top=0;left=0;right=0;bottom=0;fontColor=#000000;labelBorderColor=none;swimlaneFillColor=none;swimlaneLine=1;shadow=0;" vertex="1" parent="189">
                    <mxGeometry y="149" width="311" height="30" as="geometry"/>
                </mxCell>
                <mxCell id="209" value="" style="shape=partialRectangle;connectable=0;fillColor=none;top=0;left=0;bottom=0;right=0;editable=1;overflow=hidden;fontColor=#000000;labelBorderColor=none;swimlaneFillColor=none;swimlaneLine=1;shadow=0;" vertex="1" parent="208">
                    <mxGeometry width="30" height="30" as="geometry">
                        <mxRectangle width="30" height="30" as="alternateBounds"/>
                    </mxGeometry>
                </mxCell>
                <mxCell id="210" value="created_at DATETIME NOT_NULL" style="shape=partialRectangle;connectable=0;fillColor=none;top=0;left=0;bottom=0;right=0;align=left;spacingLeft=6;overflow=hidden;fontColor=#000000;labelBorderColor=none;swimlaneFillColor=none;swimlaneLine=1;shadow=0;" vertex="1" parent="208">
                    <mxGeometry x="30" width="281" height="30" as="geometry">
                        <mxRectangle width="281" height="30" as="alternateBounds"/>
                    </mxGeometry>
                </mxCell>
                <mxCell id="211" value="" style="shape=tableRow;horizontal=0;startSize=0;swimlaneHead=0;swimlaneBody=0;fillColor=none;collapsible=0;dropTarget=0;points=[[0,0.5],[1,0.5]];portConstraint=eastwest;top=0;left=0;right=0;bottom=0;fontColor=#000000;labelBorderColor=none;swimlaneFillColor=none;swimlaneLine=1;shadow=0;" vertex="1" parent="189">
                    <mxGeometry y="179" width="311" height="30" as="geometry"/>
                </mxCell>
                <mxCell id="212" value="FK" style="shape=partialRectangle;connectable=0;fillColor=none;top=0;left=0;bottom=0;right=0;editable=1;overflow=hidden;fontColor=#000000;labelBorderColor=none;swimlaneFillColor=none;swimlaneLine=1;shadow=0;" vertex="1" parent="211">
                    <mxGeometry width="30" height="30" as="geometry">
                        <mxRectangle width="30" height="30" as="alternateBounds"/>
                    </mxGeometry>
                </mxCell>
                <mxCell id="213" value="updated_by INT" style="shape=partialRectangle;connectable=0;fillColor=none;top=0;left=0;bottom=0;right=0;align=left;spacingLeft=6;overflow=hidden;fontColor=#000000;labelBorderColor=none;swimlaneFillColor=none;swimlaneLine=1;shadow=0;" vertex="1" parent="211">
                    <mxGeometry x="30" width="281" height="30" as="geometry">
                        <mxRectangle width="281" height="30" as="alternateBounds"/>
                    </mxGeometry>
                </mxCell>
                <mxCell id="214" value="" style="shape=tableRow;horizontal=0;startSize=0;swimlaneHead=0;swimlaneBody=0;fillColor=none;collapsible=0;dropTarget=0;points=[[0,0.5],[1,0.5]];portConstraint=eastwest;top=0;left=0;right=0;bottom=0;fontColor=#000000;labelBorderColor=none;swimlaneFillColor=none;swimlaneLine=1;shadow=0;" vertex="1" parent="189">
                    <mxGeometry y="209" width="311" height="30" as="geometry"/>
                </mxCell>
                <mxCell id="215" value="" style="shape=partialRectangle;connectable=0;fillColor=none;top=0;left=0;bottom=0;right=0;editable=1;overflow=hidden;fontColor=#000000;labelBorderColor=none;swimlaneFillColor=none;swimlaneLine=1;shadow=0;" vertex="1" parent="214">
                    <mxGeometry width="30" height="30" as="geometry">
                        <mxRectangle width="30" height="30" as="alternateBounds"/>
                    </mxGeometry>
                </mxCell>
                <mxCell id="216" value="updated_at DATETIME" style="shape=partialRectangle;connectable=0;fillColor=none;top=0;left=0;bottom=0;right=0;align=left;spacingLeft=6;overflow=hidden;fontColor=#000000;labelBorderColor=none;swimlaneFillColor=none;swimlaneLine=1;shadow=0;" vertex="1" parent="214">
                    <mxGeometry x="30" width="281" height="30" as="geometry">
                        <mxRectangle width="281" height="30" as="alternateBounds"/>
                    </mxGeometry>
                </mxCell>
                <mxCell id="217" value="" style="shape=tableRow;horizontal=0;startSize=0;swimlaneHead=0;swimlaneBody=0;fillColor=none;collapsible=0;dropTarget=0;points=[[0,0.5],[1,0.5]];portConstraint=eastwest;top=0;left=0;right=0;bottom=0;fontColor=#000000;labelBorderColor=none;swimlaneFillColor=none;swimlaneLine=1;shadow=0;" vertex="1" parent="189">
                    <mxGeometry y="239" width="311" height="30" as="geometry"/>
                </mxCell>
                <mxCell id="218" value="" style="shape=partialRectangle;connectable=0;fillColor=none;top=0;left=0;bottom=0;right=0;editable=1;overflow=hidden;fontColor=#000000;labelBorderColor=none;swimlaneFillColor=none;swimlaneLine=1;shadow=0;" vertex="1" parent="217">
                    <mxGeometry width="30" height="30" as="geometry">
                        <mxRectangle width="30" height="30" as="alternateBounds"/>
                    </mxGeometry>
                </mxCell>
                <mxCell id="219" value="del_flag BOOL NOT_NULL" style="shape=partialRectangle;connectable=0;fillColor=none;top=0;left=0;bottom=0;right=0;align=left;spacingLeft=6;overflow=hidden;fontColor=#000000;labelBorderColor=none;swimlaneFillColor=none;swimlaneLine=1;shadow=0;" vertex="1" parent="217">
                    <mxGeometry x="30" width="281" height="30" as="geometry">
                        <mxRectangle width="281" height="30" as="alternateBounds"/>
                    </mxGeometry>
                </mxCell>
                <mxCell id="226" value="user_permission" style="shape=table;startSize=30;container=1;collapsible=1;childLayout=tableLayout;fixedRows=1;rowLines=0;fontStyle=1;align=center;resizeLast=1;fontColor=#000000;labelBorderColor=none;swimlaneFillColor=none;fillColor=none;strokeColor=#000000;strokeWidth=1;swimlaneLine=1;shadow=0;rounded=1;" vertex="1" parent="1">
                    <mxGeometry x="25" y="459" width="311" height="299.38" as="geometry"/>
                </mxCell>
                <mxCell id="227" value="" style="shape=tableRow;horizontal=0;startSize=0;swimlaneHead=0;swimlaneBody=0;fillColor=none;collapsible=0;dropTarget=0;points=[[0,0.5],[1,0.5]];portConstraint=eastwest;top=0;left=0;right=0;bottom=1;fontColor=#000000;labelBorderColor=none;swimlaneFillColor=none;swimlaneLine=1;shadow=0;strokeColor=#000000;" vertex="1" parent="226">
                    <mxGeometry y="30" width="311" height="29" as="geometry"/>
                </mxCell>
                <mxCell id="228" value="PK" style="shape=partialRectangle;connectable=0;fillColor=none;top=0;left=0;bottom=0;right=0;fontStyle=1;overflow=hidden;fontColor=#000000;labelBorderColor=none;swimlaneFillColor=none;swimlaneLine=1;shadow=0;" vertex="1" parent="227">
                    <mxGeometry width="30" height="29" as="geometry">
                        <mxRectangle width="30" height="29" as="alternateBounds"/>
                    </mxGeometry>
                </mxCell>
                <mxCell id="229" value="id INT NOT_NULL" style="shape=partialRectangle;connectable=0;fillColor=none;top=0;left=0;bottom=0;right=0;align=left;spacingLeft=6;fontStyle=5;overflow=hidden;fontColor=#000000;labelBorderColor=none;swimlaneFillColor=none;swimlaneLine=1;shadow=0;" vertex="1" parent="227">
                    <mxGeometry x="30" width="281" height="29" as="geometry">
                        <mxRectangle width="281" height="29" as="alternateBounds"/>
                    </mxGeometry>
                </mxCell>
                <mxCell id="230" value="" style="shape=tableRow;horizontal=0;startSize=0;swimlaneHead=0;swimlaneBody=0;fillColor=none;collapsible=0;dropTarget=0;points=[[0,0.5],[1,0.5]];portConstraint=eastwest;top=0;left=0;right=0;bottom=0;fontColor=#000000;labelBorderColor=none;swimlaneFillColor=none;swimlaneLine=1;shadow=0;" vertex="1" parent="226">
                    <mxGeometry y="59" width="311" height="30" as="geometry"/>
                </mxCell>
                <mxCell id="231" value="FK" style="shape=partialRectangle;connectable=0;fillColor=none;top=0;left=0;bottom=0;right=0;editable=1;overflow=hidden;fontColor=#000000;labelBorderColor=none;swimlaneFillColor=none;swimlaneLine=1;shadow=0;" vertex="1" parent="230">
                    <mxGeometry width="30" height="30" as="geometry">
                        <mxRectangle width="30" height="30" as="alternateBounds"/>
                    </mxGeometry>
                </mxCell>
                <mxCell id="232" value="permisstion_id INT NOT_NULL" style="shape=partialRectangle;connectable=0;fillColor=none;top=0;left=0;bottom=0;right=0;align=left;spacingLeft=6;overflow=hidden;fontColor=#000000;labelBorderColor=none;swimlaneFillColor=none;swimlaneLine=1;shadow=0;" vertex="1" parent="230">
                    <mxGeometry x="30" width="281" height="30" as="geometry">
                        <mxRectangle width="281" height="30" as="alternateBounds"/>
                    </mxGeometry>
                </mxCell>
                <mxCell id="251" value="" style="shape=tableRow;horizontal=0;startSize=0;swimlaneHead=0;swimlaneBody=0;fillColor=none;collapsible=0;dropTarget=0;points=[[0,0.5],[1,0.5]];portConstraint=eastwest;top=0;left=0;right=0;bottom=0;fontColor=#000000;labelBorderColor=none;swimlaneFillColor=none;swimlaneLine=1;shadow=0;" vertex="1" parent="226">
                    <mxGeometry y="89" width="311" height="30" as="geometry"/>
                </mxCell>
                <mxCell id="252" value="FK" style="shape=partialRectangle;connectable=0;fillColor=none;top=0;left=0;bottom=0;right=0;editable=1;overflow=hidden;fontColor=#000000;labelBorderColor=none;swimlaneFillColor=none;swimlaneLine=1;shadow=0;" vertex="1" parent="251">
                    <mxGeometry width="30" height="30" as="geometry">
                        <mxRectangle width="30" height="30" as="alternateBounds"/>
                    </mxGeometry>
                </mxCell>
                <mxCell id="253" value="user_id INT NOT_NULL" style="shape=partialRectangle;connectable=0;fillColor=none;top=0;left=0;bottom=0;right=0;align=left;spacingLeft=6;overflow=hidden;fontColor=#000000;labelBorderColor=none;swimlaneFillColor=none;swimlaneLine=1;shadow=0;" vertex="1" parent="251">
                    <mxGeometry x="30" width="281" height="30" as="geometry">
                        <mxRectangle width="281" height="30" as="alternateBounds"/>
                    </mxGeometry>
                </mxCell>
                <mxCell id="233" value="" style="shape=tableRow;horizontal=0;startSize=0;swimlaneHead=0;swimlaneBody=0;fillColor=none;collapsible=0;dropTarget=0;points=[[0,0.5],[1,0.5]];portConstraint=eastwest;top=0;left=0;right=0;bottom=0;fontColor=#000000;labelBorderColor=none;swimlaneFillColor=none;swimlaneLine=1;shadow=0;" vertex="1" parent="226">
                    <mxGeometry y="119" width="311" height="30" as="geometry"/>
                </mxCell>
                <mxCell id="234" value="" style="shape=partialRectangle;connectable=0;fillColor=none;top=0;left=0;bottom=0;right=0;editable=1;overflow=hidden;fontColor=#000000;labelBorderColor=none;swimlaneFillColor=none;swimlaneLine=1;shadow=0;" vertex="1" parent="233">
                    <mxGeometry width="30" height="30" as="geometry">
                        <mxRectangle width="30" height="30" as="alternateBounds"/>
                    </mxGeometry>
                </mxCell>
                <mxCell id="235" value="description VARCHAR(255) NOT_NULL" style="shape=partialRectangle;connectable=0;fillColor=none;top=0;left=0;bottom=0;right=0;align=left;spacingLeft=6;overflow=hidden;fontColor=#000000;labelBorderColor=none;swimlaneFillColor=none;swimlaneLine=1;shadow=0;" vertex="1" parent="233">
                    <mxGeometry x="30" width="281" height="30" as="geometry">
                        <mxRectangle width="281" height="30" as="alternateBounds"/>
                    </mxGeometry>
                </mxCell>
                <mxCell id="236" value="" style="shape=tableRow;horizontal=0;startSize=0;swimlaneHead=0;swimlaneBody=0;fillColor=none;collapsible=0;dropTarget=0;points=[[0,0.5],[1,0.5]];portConstraint=eastwest;top=0;left=0;right=0;bottom=0;fontColor=#000000;labelBorderColor=none;swimlaneFillColor=none;swimlaneLine=1;shadow=0;" vertex="1" parent="226">
                    <mxGeometry y="149" width="311" height="30" as="geometry"/>
                </mxCell>
                <mxCell id="237" value="FK" style="shape=partialRectangle;connectable=0;fillColor=none;top=0;left=0;bottom=0;right=0;editable=1;overflow=hidden;fontColor=#000000;labelBorderColor=none;swimlaneFillColor=none;swimlaneLine=1;shadow=0;" vertex="1" parent="236">
                    <mxGeometry width="30" height="30" as="geometry">
                        <mxRectangle width="30" height="30" as="alternateBounds"/>
                    </mxGeometry>
                </mxCell>
                <mxCell id="238" value="created_by INT NOT_NULL" style="shape=partialRectangle;connectable=0;fillColor=none;top=0;left=0;bottom=0;right=0;align=left;spacingLeft=6;overflow=hidden;fontColor=#000000;labelBorderColor=none;swimlaneFillColor=none;swimlaneLine=1;shadow=0;" vertex="1" parent="236">
                    <mxGeometry x="30" width="281" height="30" as="geometry">
                        <mxRectangle width="281" height="30" as="alternateBounds"/>
                    </mxGeometry>
                </mxCell>
                <mxCell id="239" value="" style="shape=tableRow;horizontal=0;startSize=0;swimlaneHead=0;swimlaneBody=0;fillColor=none;collapsible=0;dropTarget=0;points=[[0,0.5],[1,0.5]];portConstraint=eastwest;top=0;left=0;right=0;bottom=0;fontColor=#000000;labelBorderColor=none;swimlaneFillColor=none;swimlaneLine=1;shadow=0;" vertex="1" parent="226">
                    <mxGeometry y="179" width="311" height="30" as="geometry"/>
                </mxCell>
                <mxCell id="240" value="" style="shape=partialRectangle;connectable=0;fillColor=none;top=0;left=0;bottom=0;right=0;editable=1;overflow=hidden;fontColor=#000000;labelBorderColor=none;swimlaneFillColor=none;swimlaneLine=1;shadow=0;" vertex="1" parent="239">
                    <mxGeometry width="30" height="30" as="geometry">
                        <mxRectangle width="30" height="30" as="alternateBounds"/>
                    </mxGeometry>
                </mxCell>
                <mxCell id="241" value="created_at DATETIME NOT_NULL" style="shape=partialRectangle;connectable=0;fillColor=none;top=0;left=0;bottom=0;right=0;align=left;spacingLeft=6;overflow=hidden;fontColor=#000000;labelBorderColor=none;swimlaneFillColor=none;swimlaneLine=1;shadow=0;" vertex="1" parent="239">
                    <mxGeometry x="30" width="281" height="30" as="geometry">
                        <mxRectangle width="281" height="30" as="alternateBounds"/>
                    </mxGeometry>
                </mxCell>
                <mxCell id="242" value="" style="shape=tableRow;horizontal=0;startSize=0;swimlaneHead=0;swimlaneBody=0;fillColor=none;collapsible=0;dropTarget=0;points=[[0,0.5],[1,0.5]];portConstraint=eastwest;top=0;left=0;right=0;bottom=0;fontColor=#000000;labelBorderColor=none;swimlaneFillColor=none;swimlaneLine=1;shadow=0;" vertex="1" parent="226">
                    <mxGeometry y="209" width="311" height="30" as="geometry"/>
                </mxCell>
                <mxCell id="243" value="FK" style="shape=partialRectangle;connectable=0;fillColor=none;top=0;left=0;bottom=0;right=0;editable=1;overflow=hidden;fontColor=#000000;labelBorderColor=none;swimlaneFillColor=none;swimlaneLine=1;shadow=0;" vertex="1" parent="242">
                    <mxGeometry width="30" height="30" as="geometry">
                        <mxRectangle width="30" height="30" as="alternateBounds"/>
                    </mxGeometry>
                </mxCell>
                <mxCell id="244" value="updated_by INT" style="shape=partialRectangle;connectable=0;fillColor=none;top=0;left=0;bottom=0;right=0;align=left;spacingLeft=6;overflow=hidden;fontColor=#000000;labelBorderColor=none;swimlaneFillColor=none;swimlaneLine=1;shadow=0;" vertex="1" parent="242">
                    <mxGeometry x="30" width="281" height="30" as="geometry">
                        <mxRectangle width="281" height="30" as="alternateBounds"/>
                    </mxGeometry>
                </mxCell>
                <mxCell id="245" value="" style="shape=tableRow;horizontal=0;startSize=0;swimlaneHead=0;swimlaneBody=0;fillColor=none;collapsible=0;dropTarget=0;points=[[0,0.5],[1,0.5]];portConstraint=eastwest;top=0;left=0;right=0;bottom=0;fontColor=#000000;labelBorderColor=none;swimlaneFillColor=none;swimlaneLine=1;shadow=0;" vertex="1" parent="226">
                    <mxGeometry y="239" width="311" height="30" as="geometry"/>
                </mxCell>
                <mxCell id="246" value="" style="shape=partialRectangle;connectable=0;fillColor=none;top=0;left=0;bottom=0;right=0;editable=1;overflow=hidden;fontColor=#000000;labelBorderColor=none;swimlaneFillColor=none;swimlaneLine=1;shadow=0;" vertex="1" parent="245">
                    <mxGeometry width="30" height="30" as="geometry">
                        <mxRectangle width="30" height="30" as="alternateBounds"/>
                    </mxGeometry>
                </mxCell>
                <mxCell id="247" value="updated_at DATETIME" style="shape=partialRectangle;connectable=0;fillColor=none;top=0;left=0;bottom=0;right=0;align=left;spacingLeft=6;overflow=hidden;fontColor=#000000;labelBorderColor=none;swimlaneFillColor=none;swimlaneLine=1;shadow=0;" vertex="1" parent="245">
                    <mxGeometry x="30" width="281" height="30" as="geometry">
                        <mxRectangle width="281" height="30" as="alternateBounds"/>
                    </mxGeometry>
                </mxCell>
                <mxCell id="248" value="" style="shape=tableRow;horizontal=0;startSize=0;swimlaneHead=0;swimlaneBody=0;fillColor=none;collapsible=0;dropTarget=0;points=[[0,0.5],[1,0.5]];portConstraint=eastwest;top=0;left=0;right=0;bottom=0;fontColor=#000000;labelBorderColor=none;swimlaneFillColor=none;swimlaneLine=1;shadow=0;" vertex="1" parent="226">
                    <mxGeometry y="269" width="311" height="30" as="geometry"/>
                </mxCell>
                <mxCell id="249" value="" style="shape=partialRectangle;connectable=0;fillColor=none;top=0;left=0;bottom=0;right=0;editable=1;overflow=hidden;fontColor=#000000;labelBorderColor=none;swimlaneFillColor=none;swimlaneLine=1;shadow=0;" vertex="1" parent="248">
                    <mxGeometry width="30" height="30" as="geometry">
                        <mxRectangle width="30" height="30" as="alternateBounds"/>
                    </mxGeometry>
                </mxCell>
                <mxCell id="250" value="del_flag BOOL NOT_NULL" style="shape=partialRectangle;connectable=0;fillColor=none;top=0;left=0;bottom=0;right=0;align=left;spacingLeft=6;overflow=hidden;fontColor=#000000;labelBorderColor=none;swimlaneFillColor=none;swimlaneLine=1;shadow=0;" vertex="1" parent="248">
                    <mxGeometry x="30" width="281" height="30" as="geometry">
                        <mxRectangle width="281" height="30" as="alternateBounds"/>
                    </mxGeometry>
                </mxCell>
                <mxCell id="254" value="" style="edgeStyle=entityRelationEdgeStyle;fontSize=12;html=1;endArrow=ERoneToMany;fontFamily=Helvetica;fontColor=#000000;startSize=0;exitX=1;exitY=0.5;exitDx=0;exitDy=0;strokeColor=#000000;strokeWidth=2;" edge="1" parent="1" source="3" target="62">
                    <mxGeometry width="100" height="100" relative="1" as="geometry">
                        <mxPoint x="697" y="460" as="sourcePoint"/>
                        <mxPoint x="797" y="360" as="targetPoint"/>
                    </mxGeometry>
                </mxCell>
                <mxCell id="259" value="" style="edgeStyle=entityRelationEdgeStyle;fontSize=12;html=1;endArrow=ERone;endFill=1;strokeColor=#000000;strokeWidth=2;fontFamily=Helvetica;fontColor=#000000;startSize=0;entryX=1;entryY=0.5;entryDx=0;entryDy=0;exitX=0;exitY=0.5;exitDx=0;exitDy=0;" edge="1" parent="1" source="9" target="121">
                    <mxGeometry width="100" height="100" relative="1" as="geometry">
                        <mxPoint x="-12" y="232" as="sourcePoint"/>
                        <mxPoint x="-12" y="117" as="targetPoint"/>
                    </mxGeometry>
                </mxCell>
                <mxCell id="260" value="" style="edgeStyle=entityRelationEdgeStyle;fontSize=12;html=1;endArrow=ERone;endFill=1;strokeColor=#000000;strokeWidth=2;fontFamily=Helvetica;fontColor=#000000;startSize=0;exitX=0;exitY=0.5;exitDx=0;exitDy=0;" edge="1" parent="1" source="28" target="121">
                    <mxGeometry width="100" height="100" relative="1" as="geometry">
                        <mxPoint x="30" y="120" as="sourcePoint"/>
                        <mxPoint x="-65.99999999999977" y="74.50000000000023" as="targetPoint"/>
                    </mxGeometry>
                </mxCell>
                <mxCell id="261" value="" style="edgeStyle=entityRelationEdgeStyle;fontSize=12;html=1;endArrow=ERone;endFill=1;strokeColor=#000000;strokeWidth=2;fontFamily=Helvetica;fontColor=#000000;startSize=0;entryX=0;entryY=0.5;entryDx=0;entryDy=0;exitX=1;exitY=0.5;exitDx=0;exitDy=0;" edge="1" parent="1" source="59" target="87">
                    <mxGeometry width="100" height="100" relative="1" as="geometry">
                        <mxPoint x="312" y="325" as="sourcePoint"/>
                        <mxPoint x="412" y="225" as="targetPoint"/>
                    </mxGeometry>
                </mxCell>
                <mxCell id="262" value="" style="edgeStyle=entityRelationEdgeStyle;fontSize=12;html=1;endArrow=ERone;endFill=1;strokeColor=#000000;strokeWidth=2;fontFamily=Helvetica;fontColor=#000000;startSize=0;" edge="1" parent="1" source="37" target="149">
                    <mxGeometry width="100" height="100" relative="1" as="geometry">
                        <mxPoint x="59" y="561" as="sourcePoint"/>
                        <mxPoint x="159" y="461" as="targetPoint"/>
                    </mxGeometry>
                </mxCell>
                <mxCell id="263" value="" style="edgeStyle=entityRelationEdgeStyle;fontSize=12;html=1;endArrow=ERone;endFill=1;strokeColor=#000000;strokeWidth=2;fontFamily=Helvetica;fontColor=#000000;startSize=0;entryX=1;entryY=0.5;entryDx=0;entryDy=0;" edge="1" parent="1" source="43" target="149">
                    <mxGeometry width="100" height="100" relative="1" as="geometry">
                        <mxPoint x="30" y="240.00000000000023" as="sourcePoint"/>
                        <mxPoint x="-78" y="475.5" as="targetPoint"/>
                    </mxGeometry>
                </mxCell>
                <mxCell id="265" value="" style="edgeStyle=entityRelationEdgeStyle;fontSize=12;html=1;endArrow=ERmany;startArrow=ERmany;strokeColor=#000000;strokeWidth=2;fontFamily=Helvetica;fontColor=#000000;startSize=0;" edge="1" parent="1" source="149" target="251">
                    <mxGeometry width="100" height="100" relative="1" as="geometry">
                        <mxPoint x="15" y="548" as="sourcePoint"/>
                        <mxPoint x="-116" y="741" as="targetPoint"/>
                    </mxGeometry>
                </mxCell>
                <mxCell id="266" value="" style="edgeStyle=entityRelationEdgeStyle;fontSize=12;html=1;endArrow=ERmany;startArrow=ERmany;strokeColor=#000000;strokeWidth=2;fontFamily=Helvetica;fontColor=#000000;startSize=0;entryX=1;entryY=0.5;entryDx=0;entryDy=0;" edge="1" parent="1" source="190" target="230">
                    <mxGeometry width="100" height="100" relative="1" as="geometry">
                        <mxPoint x="335" y="509" as="sourcePoint"/>
                        <mxPoint x="406.5" y="555.5" as="targetPoint"/>
                    </mxGeometry>
                </mxCell>
            </root>
        </mxGraphModel>
    </diagram>
</mxfile>